<svg xmlns="http://www.w3.org/2000/svg" width="20" height="21" viewBox="0 0 20 21" fill="none">
  <path fill-rule="evenodd" clip-rule="evenodd" d="M10.1141 0.713867C7.69228 0.713867 5.486 1.51381 4.18046 2.16739C4.0625 2.22636 3.95259 2.28427 3.85019 2.34003C3.64752 2.45048 3.47488 2.55342 3.33762 2.64403L4.82277 4.83047L5.52192 5.10874C8.25417 6.48719 11.9183 6.48719 14.651 5.10874L15.4446 4.69697L16.8487 2.64403C16.5579 2.45426 16.2555 2.28289 15.9432 2.13093C14.6441 1.48432 12.4903 0.713867 10.1146 0.713867M6.66072 3.18876C6.13481 3.09036 5.61538 2.96001 5.10533 2.79844C6.3283 2.25532 8.15069 1.67895 10.1146 1.67895C11.4749 1.67895 12.7611 1.9556 13.8248 2.30625C12.5783 2.48157 11.2481 2.77914 9.98059 3.14533C8.98334 3.43379 7.81774 3.40269 6.66072 3.18876ZM15.2178 5.90386L15.0859 5.97034C12.0802 7.48659 8.09332 7.48659 5.08763 5.97034L4.96271 5.90707C0.446669 10.8617 -3.00081 20.0139 10.1141 20.0139C23.229 20.0139 19.6979 10.6917 15.2178 5.90386ZM9.55703 10.3647C9.27264 10.3647 8.99989 10.4776 8.79879 10.6787C8.59769 10.8798 8.48472 11.1526 8.48472 11.437C8.48472 11.7214 8.59769 11.9941 8.79879 12.1952C8.99989 12.3963 9.27264 12.5093 9.55703 12.5093V10.3647ZM10.6293 9.29236V8.75621H9.55703V9.29236C8.98824 9.29236 8.44275 9.51831 8.04055 9.92051C7.63836 10.3227 7.41241 10.8682 7.41241 11.437C7.41241 12.0058 7.63836 12.5513 8.04055 12.9535C8.44275 13.3557 8.98824 13.5816 9.55703 13.5816V15.7262C9.09057 15.7262 8.69328 15.4287 8.5453 15.0115C8.52335 14.9433 8.48793 14.8801 8.44114 14.8258C8.39436 14.7715 8.33715 14.7271 8.27292 14.6953C8.20868 14.6635 8.13871 14.6449 8.06715 14.6405C7.99559 14.6362 7.92389 14.6463 7.8563 14.6702C7.7887 14.6941 7.72659 14.7313 7.67362 14.7796C7.62065 14.8279 7.57791 14.8863 7.54792 14.9515C7.51793 15.0166 7.5013 15.087 7.49902 15.1587C7.49675 15.2303 7.50886 15.3017 7.53465 15.3686C7.68254 15.7868 7.95644 16.1489 8.31862 16.4049C8.6808 16.661 9.11346 16.7985 9.55703 16.7985V17.3347H10.6293V16.7985C11.1981 16.7985 11.7436 16.5726 12.1458 16.1704C12.548 15.7682 12.774 15.2227 12.774 14.6539C12.774 14.0851 12.548 13.5396 12.1458 13.1374C11.7436 12.7352 11.1981 12.5093 10.6293 12.5093V10.3647C11.0958 10.3647 11.4931 10.6622 11.6411 11.0794C11.663 11.1476 11.6984 11.2108 11.7452 11.2651C11.792 11.3194 11.8492 11.3638 11.9135 11.3956C11.9777 11.4274 12.0477 11.446 12.1192 11.4504C12.1908 11.4547 12.2625 11.4446 12.3301 11.4207C12.3977 11.3968 12.4598 11.3596 12.5128 11.3113C12.5657 11.263 12.6085 11.2046 12.6385 11.1395C12.6684 11.0743 12.6851 11.0039 12.6873 10.9322C12.6896 10.8606 12.6775 10.7892 12.6517 10.7223C12.5038 10.3041 12.2299 9.94204 11.8678 9.68596C11.5056 9.42988 11.0729 9.29237 10.6293 9.29236ZM10.6293 13.5816V15.7262C10.9137 15.7262 11.1865 15.6133 11.3876 15.4122C11.5887 15.2111 11.7017 14.9383 11.7017 14.6539C11.7017 14.3695 11.5887 14.0968 11.3876 13.8957C11.1865 13.6946 10.9137 13.5816 10.6293 13.5816Z" fill="white"/>
</svg>