<svg xmlns="http://www.w3.org/2000/svg" width="33" height="25" viewBox="0 0 33 25" fill="none">
  <path d="M26.2812 25.0051H2.88119C2.35706 25.0142 1.8507 24.8151 1.47316 24.4514C1.09562 24.0877 0.877698 23.5892 0.867188 23.0651V2.28506C0.876129 1.77246 1.08823 1.28437 1.45689 0.928096C1.82554 0.571817 2.32057 0.376475 2.83318 0.385036H10.3552C10.6705 0.383367 10.9817 0.456795 11.2631 0.599208C11.5444 0.74162 11.7878 0.948927 11.9732 1.20404L14.0422 4.09805C14.0526 4.10267 14.0638 4.10505 14.0752 4.10504H25.6352C26.1478 4.09648 26.6428 4.29182 27.0115 4.6481C27.3801 5.00438 27.5922 5.49246 27.6012 6.00506V11.205C27.6012 11.4517 27.5032 11.6883 27.3288 11.8627C27.1544 12.0371 26.9178 12.135 26.6712 12.135C26.4245 12.135 26.188 12.0371 26.0136 11.8627C25.8392 11.6883 25.7412 11.4517 25.7412 11.205V6.01104C25.7278 5.99656 25.7113 5.98529 25.693 5.97802C25.6746 5.97075 25.6549 5.96768 25.6352 5.96905H14.0752C13.7745 5.97023 13.4779 5.90005 13.2097 5.76428C12.9414 5.62851 12.7092 5.43102 12.5322 5.18804L10.4602 2.28805C10.4466 2.27421 10.4302 2.26341 10.4121 2.25634C10.394 2.24928 10.3746 2.24609 10.3552 2.24704H2.83518C2.8156 2.24582 2.79599 2.24887 2.77769 2.25595C2.7594 2.26302 2.74285 2.27398 2.72919 2.28805V23.063C2.72919 23.083 2.78219 23.1431 2.88319 23.1431H26.2832C26.5298 23.1431 26.7664 23.241 26.9408 23.4154C27.1152 23.5898 27.2132 23.8264 27.2132 24.0731C27.2132 24.3197 27.1152 24.5562 26.9408 24.7306C26.7664 24.9051 26.5298 25.003 26.2832 25.003L26.2812 25.0051Z" fill="white"/>
  <path d="M27.1114 24.4901L25.4464 23.6611L30.6894 13.1302C30.7361 13.0412 30.7582 12.9412 30.7532 12.8408C30.7483 12.7404 30.7166 12.6432 30.6614 12.5591C30.5859 12.4435 30.4817 12.3494 30.359 12.286C30.2364 12.2226 30.0994 12.1919 29.9614 12.1971H8.90938C8.75954 12.193 8.6115 12.2306 8.48186 12.3059C8.35221 12.3811 8.24609 12.491 8.17538 12.6231L2.79438 24.1462L1.10938 23.3591L6.49438 11.8362C6.7141 11.3827 7.05811 11.0009 7.48637 10.7354C7.91462 10.4698 8.40949 10.3314 8.91338 10.3362H29.9664C30.4213 10.3303 30.87 10.4416 31.2695 10.6592C31.669 10.8769 32.0057 11.1937 32.2474 11.5791C32.4686 11.9329 32.595 12.3377 32.6147 12.7545C32.6343 13.1713 32.5464 13.5861 32.3594 13.9591L27.1114 24.4901Z" fill="white"/>
</svg>