<svg width="108" height="25" viewBox="0 0 108 25" fill="none" xmlns="http://www.w3.org/2000/svg">
<path d="M3.26562 24.8736V0H10.9032C14.5935 0 17.6882 1.19092 20.1874 3.57275C21.4023 4.70208 22.3644 6.07577 23.0105 7.60351C23.6566 9.13125 23.972 10.7784 23.936 12.4368C23.9721 14.0951 23.6567 15.7424 23.0106 17.2701C22.3645 18.7978 21.4023 20.1715 20.1874 21.3008C17.6876 23.6827 14.5929 24.8736 10.9032 24.8736H3.26562Z" fill="#20248A"/>
<path d="M15.7387 2.75945C15.437 2.62875 15.092 2.75674 14.7573 3.52827C14.3467 4.47437 6.7272 22.3273 6.88322 22.3947C7.03925 22.462 15.437 4.94697 15.8477 4.00132C16.1995 3.19044 16.0394 2.89015 15.7387 2.75945ZM13.2567 8.48038C13.1423 8.43063 13.922 6.24854 14.5416 4.81717C15.0553 3.63364 15.2466 3.1927 15.5017 3.3035C15.7568 3.4143 15.5655 3.8548 15.0517 5.03878C14.4321 6.46743 13.3712 8.52786 13.2567 8.47811" fill="white"/>
<path d="M1.10855 16.9807C2.6584 16.367 3.75284 15.004 4.48277 13.5505C5.37912 11.7663 5.77529 9.7855 6.57441 7.96204C7.24826 6.4244 8.27485 4.90078 9.83918 4.16724C11.1362 3.55897 12.876 3.64897 13.9628 4.64391C15.1694 5.74829 14.8257 7.61924 15.8622 8.81996C16.1253 9.10723 16.4463 9.33545 16.804 9.48957C17.1617 9.64369 17.5481 9.7202 17.9376 9.71405C18.7415 9.70217 19.517 9.41483 20.1346 8.9C20.4579 8.63821 20.7466 8.33641 20.9938 8.00184C21.2212 7.71284 21.4041 7.39152 21.5366 7.04851C21.7324 6.50355 21.816 5.74603 21.3321 5.32092C21.2261 5.2353 21.1028 5.17375 20.9706 5.14054C20.8385 5.10733 20.7007 5.10325 20.5668 5.12859C20.433 5.15393 20.3062 5.20808 20.1953 5.28728C20.0844 5.36649 19.9921 5.46886 19.9247 5.58729C19.7413 5.82643 19.6419 6.1194 19.6419 6.42079C19.6419 6.72217 19.7413 7.01515 19.9247 7.25428C20.1778 7.52315 20.4836 7.73693 20.823 7.88229C21.1625 8.02765 21.5282 8.10144 21.8974 8.09907C22.6951 8.13739 23.4936 8.04482 24.2613 7.82501C25.8026 7.40392 27.1943 6.55762 28.2773 5.38288C28.5439 5.09118 28.7885 4.78008 29.009 4.45216C29.0655 4.36894 28.9416 4.27126 28.8851 4.35673C28.0046 5.64953 26.7739 6.66465 25.3372 7.28322C24.6198 7.59508 23.8611 7.80178 23.0846 7.89692C22.3319 8.02549 21.5589 7.96329 20.8365 7.71602C20.4982 7.5886 20.2044 7.36526 19.9912 7.07338C19.9043 6.9473 19.8447 6.80442 19.8164 6.65394C19.788 6.50345 19.7915 6.3487 19.8266 6.19964C19.9324 5.70217 20.419 5.074 20.9952 5.29514C21.6455 5.54614 21.599 6.38054 21.4181 6.92323C21.2955 7.26536 21.1195 7.58591 20.8966 7.87295C20.6552 8.2042 20.3724 8.50316 20.055 8.76252C19.4369 9.28659 18.6492 9.56776 17.839 9.5535C17.4486 9.54781 17.0649 9.45247 16.7172 9.27486C16.3696 9.09725 16.0675 8.84211 15.8342 8.52916C15.4566 7.86605 15.1965 7.14266 15.0653 6.39094C14.9174 5.69386 14.5762 5.05252 14.0808 4.54035C13.553 4.09813 12.9188 3.80141 12.2411 3.67957C11.5634 3.55774 10.8656 3.615 10.2168 3.84569C8.71579 4.33864 7.61593 5.63523 6.87832 6.97841C5.96885 8.63589 5.55052 10.4978 4.87487 12.2512C4.28423 13.7843 3.44169 15.3129 2.07093 16.2798C1.75222 16.5043 1.40809 16.6904 1.04569 16.8342C0.953428 16.8736 1.01449 17.0178 1.10855 16.9807Z" fill="white" stroke="white" stroke-width="0.0431333" stroke-miterlimit="10"/>
<path d="M35.2076 13.3904V13.4451C35.2106 13.5968 35.1779 13.747 35.1122 13.8838V13.8973L35.0982 13.9109C35.074 13.9656 35.0418 14.0163 35.0027 14.0615C35.003 14.0634 35.0027 14.0653 35.0021 14.0671C35.0015 14.0689 35.0005 14.0705 34.9991 14.0719C34.9978 14.0732 34.9961 14.0743 34.9943 14.0749C34.9925 14.0755 34.9906 14.0757 34.9887 14.0755L34.9752 14.1027L34.934 14.1438L34.9064 14.1714L34.8928 14.185C34.8928 14.2035 34.8879 14.2121 34.8788 14.2121C34.877 14.212 34.8751 14.2122 34.8734 14.2129C34.8716 14.2135 34.87 14.2146 34.8687 14.2159C34.8675 14.2173 34.8665 14.2189 34.8659 14.2206C34.8652 14.2224 34.865 14.2243 34.8652 14.2261L34.8381 14.2397L34.8241 14.2533C34.8207 14.2573 34.8166 14.2605 34.8119 14.2629C34.8073 14.2652 34.8022 14.2665 34.797 14.2668C34.7875 14.2668 34.7834 14.2718 34.7834 14.2808L34.7558 14.2944L34.7422 14.308C34.7388 14.312 34.7346 14.3154 34.7299 14.3178C34.7251 14.3202 34.7199 14.3216 34.7146 14.322C34.7128 14.3218 34.7109 14.322 34.7092 14.3226C34.7075 14.3232 34.7059 14.3242 34.7046 14.3255C34.7033 14.3268 34.7023 14.3284 34.7017 14.3301C34.7011 14.3319 34.7009 14.3337 34.7011 14.3356L34.6735 14.3491C34.6667 14.3572 34.6583 14.3638 34.6489 14.3686C34.6396 14.3735 34.6293 14.3764 34.6188 14.3772L34.5916 14.3907L34.5776 14.4043H34.5505C34.5434 14.4123 34.5335 14.4171 34.5229 14.4179C34.5139 14.4179 34.5089 14.4179 34.5089 14.4247C34.5089 14.4314 34.5044 14.4319 34.4958 14.4319H34.4682C34.4611 14.4396 34.4515 14.4445 34.441 14.4455C34.4314 14.4455 34.422 14.4478 34.4135 14.4522C34.405 14.4565 34.3958 14.4588 34.3863 14.459H34.3171L34.29 14.473H34.2077C33.4616 14.5257 32.7135 14.4035 32.0229 14.1162C31.5007 13.8562 31.0368 13.4927 30.6594 13.048C30.6176 12.9948 30.5722 12.9445 30.5237 12.8974C30.2041 12.952 29.921 13.3537 29.6744 14.1027C29.2726 15.5206 29.0606 16.9855 29.0439 18.4592C29.1172 19.4541 29.1585 19.9884 29.1679 20.0619L29.181 20.1714L29.195 20.2125V20.2672C29.1946 20.3971 29.1761 20.5263 29.1403 20.6512C29.0721 20.8249 28.9636 20.9799 28.8237 21.1034C28.6278 21.2894 28.3871 21.4215 28.125 21.4869C27.7996 21.5772 27.4626 21.6188 27.125 21.6104C26.2661 21.6104 25.7042 21.341 25.4395 20.8022C25.1112 20.1447 24.9561 18.341 24.9742 15.3911C24.9515 13.7722 25.0155 12.1533 25.1659 10.5412C25.1771 10.4414 25.2049 10.3442 25.2482 10.2536C25.3171 10.1182 25.4022 9.99175 25.5015 9.87686C25.6586 9.70632 25.8635 9.58716 26.0894 9.53496C26.4093 9.45375 26.7414 9.43274 27.069 9.47301C27.5164 9.49883 27.9509 9.63276 28.3353 9.8633C28.6437 10.0467 28.8748 10.336 28.9856 10.6773C29.2065 10.4098 29.4824 10.193 29.7945 10.0416C30.1067 9.89023 30.4477 9.80782 30.7946 9.79998C31.0368 9.79503 31.2774 9.84126 31.5005 9.93566C31.707 10.0277 31.888 10.1687 32.0279 10.3463C32.1459 10.4907 32.2557 10.6417 32.3566 10.7985C32.4481 10.9534 32.5304 11.1135 32.6031 11.2779C32.7491 11.5701 32.8631 11.7802 32.9455 11.9084C33.0564 12.0605 33.2054 12.1808 33.3774 12.2575C33.6238 12.3713 33.8935 12.4253 34.1647 12.4153H34.2882C34.3219 12.4171 34.3548 12.4263 34.3845 12.4425C34.4169 12.4407 34.4493 12.4453 34.4799 12.456H34.494C34.6014 12.4969 34.7028 12.5523 34.7952 12.6206C34.8824 12.6721 34.9572 12.7422 35.0141 12.826C35.0172 12.8414 35.0244 12.8558 35.0348 12.8676C35.0454 12.8818 35.0567 12.8954 35.0688 12.9083L35.1104 12.9906L35.138 13.0453V13.0589L35.1511 13.0865V13.1C35.1511 13.1095 35.1538 13.114 35.1583 13.114C35.1628 13.114 35.1651 13.1186 35.1651 13.1276V13.1547C35.1722 13.1674 35.1767 13.1814 35.1782 13.1959L35.1927 13.2095V13.2371C35.1926 13.2466 35.1947 13.2561 35.199 13.2646C35.2035 13.273 35.2058 13.2823 35.2058 13.2918V13.3877L35.2076 13.3904Z" fill="#2C3796"/>
<path d="M41.912 15.9517C42.0769 15.8316 42.2738 15.7634 42.4776 15.7557C42.6814 15.748 42.8829 15.8012 43.0564 15.9084C43.2298 16.0157 43.3674 16.1722 43.4515 16.358C43.5357 16.5438 43.5626 16.7505 43.5288 16.9516C43.2544 18.0835 42.709 19.1318 41.9396 20.0061L41.9265 20.0201C41.2257 20.8523 40.2733 21.434 39.213 21.6776C38.9704 21.7352 38.7224 21.7674 38.4731 21.7735H38.3225C36.5416 21.7735 35.2127 21.2345 34.336 20.1567C33.5871 19.2257 33.2126 17.9472 33.2126 16.3212C33.1995 15.3415 33.3786 14.3687 33.7399 13.458C34.0537 12.6512 34.5702 11.9389 35.2396 11.3899C35.6606 11.0202 36.1632 10.7554 36.7062 10.6173C37.2492 10.4792 37.8172 10.4716 38.3637 10.5953C38.9374 10.7115 39.4584 11.0093 39.8498 11.4446C40.2381 11.8623 40.4767 12.3971 40.5281 12.9651C40.5367 13.1387 40.5367 13.3124 40.5281 13.4851C40.4075 14.6091 39.6267 15.4358 38.1855 15.9653C37.7012 16.1366 37.2014 16.2604 36.6931 16.3348C36.6629 17.2114 36.8514 18.0818 37.2417 18.8673C37.3371 19.1057 37.4983 19.3122 37.7065 19.4626C37.9146 19.613 38.1612 19.7013 38.4175 19.7171C38.5469 19.7118 38.6753 19.6935 38.801 19.6624C39.4581 19.4697 40.0414 19.0826 40.4743 18.5521C40.6378 18.3646 40.7844 18.1628 40.9121 17.9493C40.9135 17.9369 40.9183 17.9251 40.9261 17.9154C40.9342 17.903 40.9434 17.8915 40.9537 17.881C41.2015 17.4925 41.3863 17.0672 41.5014 16.621C41.5203 16.487 41.5665 16.3583 41.6371 16.2429C41.7078 16.1275 41.8013 16.0277 41.912 15.9499M38.1317 12.7575C38.0093 12.7708 37.8914 12.8116 37.7869 12.8768C37.6825 12.9421 37.5941 13.03 37.5284 13.1342C37.2965 13.4463 37.1205 13.7962 37.0083 14.1685C37.1758 14.13 37.3404 14.0797 37.5008 14.0179C38.1222 13.7809 38.4466 13.5343 38.474 13.278V13.2644C38.478 13.2611 38.4813 13.2569 38.4836 13.2523C38.486 13.2476 38.4873 13.2425 38.4876 13.2373C38.4545 13.0703 38.3792 12.9146 38.2687 12.7851C38.2262 12.7657 38.1798 12.7563 38.133 12.7575" fill="#2C3796"/>
<path d="M50.4144 16.5309C50.5294 16.6039 50.6287 16.6991 50.7064 16.8111C50.784 16.923 50.8385 17.0493 50.8667 17.1826C50.8995 17.3131 50.9054 17.449 50.8842 17.5819C50.863 17.7148 50.815 17.8421 50.7432 17.9559C50.0149 19.0655 48.9771 19.9371 47.7584 20.4627C47.7719 21.3502 47.5548 22.2259 47.1284 23.0044C46.7457 23.7213 46.1463 24.2991 45.4157 24.6551C44.9557 24.8823 44.4491 24.9997 43.936 24.9979C43.067 24.9875 42.2271 24.6832 41.5531 24.1345C41.2076 23.8898 40.9601 23.5305 40.8544 23.1206C40.7184 22.5883 40.7841 22.0245 41.0389 21.5377C41.3025 21.0004 41.7263 20.558 42.2518 20.2714C42.7777 19.9908 43.3336 19.7704 43.9088 19.6143C43.6454 19.1058 43.3137 18.6356 42.9229 18.2169C42.6392 17.8795 42.4223 17.6103 42.2722 17.4092C42.122 17.2081 41.9346 16.9248 41.71 16.5594C41.4902 16.2028 41.3263 15.8146 41.2239 15.4084C41.1219 14.9915 41.0713 14.5637 41.0733 14.1344C41.0544 13.1868 41.3223 12.2556 41.8421 11.463C42.1014 11.0568 42.4468 10.7126 42.8539 10.4547C43.261 10.1968 43.7198 10.0315 44.1978 9.9706C44.5848 9.86801 44.9963 9.91652 45.3488 10.1063C45.5586 10.2031 45.7347 10.3605 45.8544 10.5582C45.9741 10.7558 46.0319 10.9848 46.0204 11.2156C46.0057 11.6377 45.8459 12.0418 45.5681 12.3598C45.2532 12.7511 44.8789 13.0907 44.4588 13.3661V13.3796C44.5497 13.7426 44.6806 14.0943 44.8491 14.4284C44.9927 14.7281 45.1549 15.0186 45.3348 15.2981C45.4807 15.5176 45.6954 15.8191 45.9788 16.2026C46.5034 16.878 46.9536 17.6081 47.3215 18.3801C48.001 18.026 48.5775 17.5023 48.9948 16.8597C49.0678 16.7447 49.163 16.6455 49.2748 16.5678C49.3866 16.4902 49.5129 16.4356 49.6461 16.4074C49.7766 16.375 49.9124 16.3692 50.0452 16.3903C50.1781 16.4115 50.3053 16.4591 50.4194 16.5304M43.6212 22.2441C43.7216 22.1153 43.7916 21.9655 43.8261 21.8059C43.6374 21.8738 43.4542 21.9563 43.2784 22.0528C43.1004 22.1479 42.9568 22.2964 42.8678 22.4775H42.8954C43.0257 22.4932 43.1579 22.4805 43.2828 22.4402C43.4077 22.3999 43.5224 22.333 43.619 22.2441" fill="#2C3796"/>
<path d="M57.9769 16.5309C58.0919 16.6039 58.1911 16.6992 58.2688 16.8111C58.3465 16.923 58.401 17.0493 58.4292 17.1826C58.462 17.3131 58.468 17.449 58.4467 17.5819C58.4255 17.7148 58.3776 17.8421 58.3057 17.9559C57.5776 19.0656 56.5397 19.9372 55.3209 20.4627C55.3343 21.3501 55.1174 22.2258 54.6914 23.0043C54.3087 23.7213 53.7093 24.299 52.9787 24.655C52.5186 24.8822 52.0121 24.9996 51.499 24.9978C50.6298 24.9875 49.7898 24.6832 49.1156 24.1345C48.7703 23.8896 48.5228 23.5304 48.4169 23.1206C48.2808 22.5882 48.3467 22.0243 48.6019 21.5377C48.8654 21.0004 49.289 20.558 49.8144 20.2714C50.3404 19.9908 50.8964 19.7704 51.4718 19.6143C51.2082 19.1058 50.8763 18.6356 50.4855 18.2169C50.2024 17.8795 49.9856 17.6102 49.8351 17.4091C49.6847 17.208 49.4973 16.9248 49.273 16.5594C49.0531 16.2028 48.889 15.8146 48.7864 15.4084C48.6845 14.9915 48.6341 14.5636 48.6362 14.1344C48.6175 13.1868 48.8855 12.2557 49.4051 11.463C49.6644 11.0568 50.0099 10.7125 50.4171 10.4546C50.8243 10.1967 51.2832 10.0315 51.7613 9.97058C52.1481 9.86802 52.5594 9.91653 52.9118 10.1063C53.1217 10.203 53.2979 10.3603 53.4176 10.558C53.5373 10.7558 53.595 10.9848 53.5834 11.2156C53.5687 11.6377 53.409 12.0418 53.1311 12.3598C52.816 12.7511 52.4415 13.0907 52.0213 13.3661V13.3796C52.1124 13.7425 52.2433 14.0942 52.4116 14.4284C52.5552 14.7282 52.7176 15.0187 52.8978 15.2981C53.0434 15.5175 53.2581 15.819 53.5418 16.2025C54.0662 16.8781 54.5164 17.6081 54.8845 18.3801C55.564 18.026 56.1404 17.5022 56.5578 16.8597C56.6307 16.7448 56.7258 16.6456 56.8376 16.5679C56.9493 16.4903 57.0755 16.4357 57.2086 16.4074C57.3392 16.375 57.475 16.3692 57.608 16.3903C57.7409 16.4114 57.8682 16.4591 57.9824 16.5304M51.1833 22.2441C51.2838 22.1154 51.354 21.9655 51.3886 21.8059C51.1998 21.8737 51.0167 21.9562 50.8409 22.0528C50.6627 22.1477 50.5189 22.2963 50.4298 22.4775H50.4574C50.5878 22.4932 50.7199 22.4805 50.8449 22.4402C50.9698 22.4 51.0845 22.333 51.181 22.2441" fill="#2C3796"/>
<path d="M77.1218 12.5001C76.0017 12.4955 74.9054 12.8231 73.9714 13.4413C73.0374 14.0595 72.3075 14.9407 71.8741 15.9735C71.4406 17.0063 71.323 18.1444 71.5361 19.2441C71.7492 20.3437 72.2834 21.3555 73.0712 22.1517C73.859 22.9479 74.8652 23.4927 75.9625 23.7173C77.0598 23.9419 78.1991 23.8363 79.2364 23.4137C80.2737 22.9912 81.1626 22.2707 81.7906 21.3432C82.4186 20.4157 82.7577 19.323 82.7649 18.2029C82.7762 17.4559 82.6383 16.7142 82.3594 16.0211C82.0806 15.328 81.6663 14.6975 81.1408 14.1665C80.6154 13.6355 79.9893 13.2146 79.2992 12.9284C78.6091 12.6423 77.8688 12.4967 77.1218 12.5001ZM75.7166 17.7009C75.5288 17.7009 75.3452 17.6452 75.189 17.5408C75.0328 17.4365 74.9111 17.2882 74.8392 17.1146C74.7673 16.9411 74.7485 16.7501 74.7852 16.5659C74.8218 16.3817 74.9123 16.2124 75.0451 16.0796C75.1779 15.9468 75.3471 15.8564 75.5314 15.8197C75.7156 15.7831 75.9065 15.8019 76.0801 15.8738C76.2536 15.9456 76.4019 16.0674 76.5063 16.2235C76.6107 16.3797 76.6663 16.5633 76.6663 16.7512C76.6663 17.0031 76.5663 17.2446 76.3882 17.4227C76.2101 17.6008 75.9685 17.7009 75.7166 17.7009ZM78.4839 17.7009C78.2961 17.7009 78.1125 17.6452 77.9563 17.5408C77.8001 17.4365 77.6784 17.2882 77.6065 17.1146C77.5346 16.9411 77.5158 16.7501 77.5525 16.5659C77.5891 16.3817 77.6796 16.2124 77.8124 16.0796C77.9452 15.9468 78.1144 15.8564 78.2986 15.8197C78.4829 15.7831 78.6738 15.8019 78.8474 15.8738C79.0209 15.9456 79.1692 16.0674 79.2736 16.2235C79.378 16.3797 79.4336 16.5633 79.4336 16.7512C79.4336 17.0031 79.3336 17.2446 79.1555 17.4227C78.9774 17.6008 78.7358 17.7009 78.4839 17.7009ZM75.7166 20.541C75.5288 20.541 75.3452 20.4853 75.189 20.381C75.0328 20.2766 74.9111 20.1283 74.8392 19.9547C74.7673 19.7812 74.7485 19.5902 74.7852 19.406C74.8218 19.2218 74.9123 19.0526 75.0451 18.9197C75.1779 18.7869 75.3471 18.6965 75.5314 18.6598C75.7156 18.6232 75.9065 18.642 76.0801 18.7139C76.2536 18.7857 76.4019 18.9075 76.5063 19.0637C76.6107 19.2198 76.6663 19.4034 76.6663 19.5913C76.6663 19.8432 76.5663 20.0847 76.3882 20.2628C76.2101 20.4409 75.9685 20.541 75.7166 20.541ZM78.4839 20.541C78.2961 20.541 78.1125 20.4853 77.9563 20.381C77.8001 20.2766 77.6784 20.1283 77.6065 19.9547C77.5346 19.7812 77.5158 19.5902 77.5525 19.406C77.5891 19.2218 77.6796 19.0526 77.8124 18.9197C77.9452 18.7869 78.1144 18.6965 78.2986 18.6598C78.4829 18.6232 78.6738 18.642 78.8474 18.7139C79.0209 18.7857 79.1692 18.9075 79.2736 19.0637C79.378 19.2198 79.4336 19.4034 79.4336 19.5913C79.4336 19.8432 79.3336 20.0847 79.1555 20.2628C78.9774 20.4409 78.7358 20.541 78.4839 20.541Z" fill="#DB3804"/>
<path d="M70.8308 18.0702V18.11C70.8962 18.771 70.7943 19.4379 70.5346 20.0492C70.2632 20.7119 69.8605 21.3128 69.3506 21.8157C68.0572 23.082 66.3551 23.7151 64.2443 23.7151C62.4114 23.7721 60.63 23.1039 59.2868 21.8555C58.3575 21.0008 57.6598 19.9246 57.2589 18.7273C56.8586 17.6006 56.6683 16.4101 56.6972 15.2147C56.7544 13.6175 57.1638 12.0527 57.8961 10.6321C58.5745 9.27884 59.5573 8.10127 60.7674 7.19186C61.6663 6.51487 62.6854 6.01458 63.7708 5.71754C64.8352 5.42584 65.947 5.34897 67.0414 5.49142C67.5278 5.52933 67.9964 5.69069 68.403 5.96023C68.8096 6.22977 69.1408 6.59857 69.3651 7.03177C69.6412 7.55313 69.7547 8.14525 69.6912 8.73176C69.6236 9.36555 69.3995 9.97258 69.039 10.4982C69.0126 10.5481 68.9779 10.593 68.9364 10.6312L68.921 10.6448C68.7872 10.7838 68.6188 10.8845 68.433 10.9365H68.4036L68.3882 10.95H68.3733C68.3444 10.9605 68.3136 10.965 68.2829 10.9631L68.2689 10.9767H67.9283L67.898 10.9631L67.8686 10.95H67.8094C67.7953 10.9427 67.7799 10.9381 67.7641 10.9365C67.7435 10.939 67.7226 10.9344 67.7049 10.9233C67.6954 10.9233 67.69 10.9193 67.69 10.9102L67.6606 10.8967H67.6307C67.6133 10.8929 67.5975 10.8837 67.5855 10.8704C67.5669 10.8673 67.5492 10.8604 67.5335 10.8501C67.5151 10.8411 67.4978 10.83 67.4819 10.8171H67.4675L67.4525 10.804L67.4236 10.7773C67.4179 10.7772 67.4123 10.7761 67.4071 10.7738C67.4019 10.7716 67.3972 10.7683 67.3933 10.7642L67.3779 10.751C67.3742 10.747 67.3696 10.7436 67.3646 10.7413C67.3595 10.739 67.3541 10.7377 67.3485 10.7375L67.3191 10.7108C67.2487 10.6501 67.1886 10.5783 67.1414 10.4982H67.1269L67.112 10.4716C67.1079 10.4684 67.1045 10.4645 67.102 10.46C67.0995 10.4555 67.098 10.4505 67.0975 10.4453V10.4318C67.0931 10.4287 67.0895 10.4248 67.0868 10.4202C67.0842 10.4155 67.0826 10.4104 67.0822 10.4051C67.0822 10.3969 67.0799 10.392 67.0745 10.392C67.069 10.392 67.0681 10.3879 67.0681 10.3788C67.0681 10.3698 67.065 10.3653 67.0609 10.3653C67.0568 10.3653 67.0528 10.3612 67.0528 10.3522C67.051 10.3379 67.0459 10.3243 67.0378 10.3124L66.9926 10.1532V10.1134C66.9926 10.1048 66.9872 10.0998 66.9772 10.0998V9.84881C66.9815 9.84564 66.985 9.84165 66.9877 9.83706C66.9903 9.83247 66.992 9.82739 66.9926 9.82213V9.80856L67.0071 9.795V9.76877C67.0075 9.75738 67.0102 9.74617 67.0148 9.73575C67.0187 9.72497 67.0211 9.71371 67.022 9.70228C67.0208 9.69287 67.0214 9.68332 67.0239 9.67416C67.0264 9.665 67.0307 9.65642 67.0365 9.64892L67.0514 9.62269L67.0668 9.59601V9.58289C67.0676 9.57242 67.0707 9.56225 67.0758 9.55305C67.0808 9.54385 67.0878 9.53583 67.0962 9.52953C67.2851 9.22037 67.4037 8.87343 67.4435 8.51333C67.4682 8.19917 67.4263 7.9934 67.3178 7.89601C67.2279 7.79032 67.1134 7.70835 66.9844 7.65732C66.8554 7.6063 66.7158 7.58778 66.5779 7.60341C65.7565 7.60122 64.9539 7.84919 64.2769 8.31434C63.5608 8.79934 62.9657 9.4424 62.5375 10.1939C62.0661 11.0163 61.7079 11.8986 61.4725 12.8169C61.2157 13.7857 61.0862 14.7837 61.0872 15.7859C61.0262 17.2409 61.3695 18.6843 62.079 19.9561C62.3164 20.411 62.6736 20.7924 63.1119 21.0593C63.5503 21.3261 64.0532 21.4682 64.5663 21.4702C65.6491 21.5344 66.7163 21.1882 67.5552 20.5006C67.9071 20.192 68.1811 19.8046 68.3548 19.37C68.5128 18.9908 68.5981 18.5853 68.6062 18.1747V18.1611C68.6073 18.1458 68.6099 18.1307 68.6139 18.1159C68.6174 18.101 68.6198 18.0859 68.6212 18.0707V18.0177L68.6356 17.9911V17.9246C68.6356 17.9155 68.6388 17.9115 68.6433 17.9115C68.6478 17.9115 68.6506 17.9065 68.6506 17.8979C68.6506 17.8893 68.6528 17.8848 68.6587 17.8848C68.6646 17.8848 68.6659 17.8757 68.6659 17.8581L68.6804 17.8314L68.6953 17.8179V17.7631C68.6953 17.7545 68.6976 17.75 68.7021 17.75C68.7066 17.75 68.7098 17.7455 68.7098 17.7364C68.7098 17.7274 68.7152 17.7233 68.7247 17.7233C68.7342 17.7233 68.7392 17.7188 68.7392 17.7102C68.7392 17.7016 68.7423 17.6967 68.7469 17.6967C68.7514 17.6967 68.7541 17.6926 68.7541 17.6835C68.7555 17.673 68.761 17.6634 68.7695 17.6569C68.7737 17.6537 68.7771 17.6497 68.7796 17.6451C68.7821 17.6405 68.7836 17.6354 68.784 17.6302V17.6171L68.7989 17.6039C68.8098 17.594 68.8196 17.5829 68.8283 17.5709C68.8369 17.5588 68.8468 17.5476 68.8577 17.5375C68.9079 17.4841 68.9627 17.4352 69.0214 17.3914L69.0508 17.3647C69.0508 17.3561 69.0558 17.3516 69.0648 17.3516C69.076 17.3511 69.0867 17.3464 69.0947 17.3385C69.1025 17.3305 69.1129 17.3256 69.1241 17.3249C69.1362 17.3119 69.1519 17.3028 69.1693 17.2987L69.1987 17.2851C69.2066 17.2772 69.2173 17.2725 69.2285 17.272H69.2434L69.2579 17.2589H69.2728C69.2823 17.2589 69.2882 17.2589 69.2882 17.2516C69.2882 17.2444 69.2927 17.2453 69.3022 17.2453L69.3176 17.2322L69.3321 17.2191H69.3918L69.4058 17.2055L69.4212 17.1924H69.48C69.4878 17.1844 69.4982 17.1796 69.5094 17.1788H69.5686C69.5844 17.1774 69.5997 17.1729 69.6138 17.1657H69.8368C69.9265 17.1774 70.0154 17.1953 70.1027 17.2191C70.1203 17.2209 70.1375 17.2253 70.1538 17.2322C70.1727 17.238 70.1905 17.247 70.2063 17.2589C70.2205 17.2708 70.2356 17.2817 70.2515 17.2914C70.2645 17.3022 70.2801 17.3092 70.2967 17.3118C70.2967 17.3208 70.3017 17.3249 70.3112 17.3249C70.3288 17.3286 70.3447 17.338 70.3564 17.3516C70.3763 17.3516 70.3863 17.3561 70.3863 17.3647C70.4284 17.3924 70.4682 17.4236 70.5052 17.4579L70.5192 17.471C70.5272 17.4792 70.5381 17.484 70.5495 17.4845C70.559 17.4845 70.564 17.4891 70.564 17.4977C70.564 17.5063 70.5735 17.5198 70.5943 17.5375C70.5943 17.5555 70.5988 17.5641 70.6083 17.5641C70.6178 17.5641 70.6237 17.5687 70.6237 17.5773C70.624 17.5824 70.6254 17.5875 70.6278 17.5921C70.6303 17.5967 70.6336 17.6007 70.6377 17.6039C70.641 17.6192 70.6489 17.6331 70.6603 17.6437C70.6715 17.6579 70.6837 17.6713 70.697 17.6835C70.697 17.6926 70.7019 17.6967 70.7119 17.6967L70.7264 17.7233V17.7364C70.7264 17.7455 70.7291 17.75 70.7345 17.75C70.739 17.75 70.7417 17.7545 70.7417 17.7631C70.7417 17.7717 70.744 17.7762 70.749 17.7762C70.7539 17.7762 70.7558 17.7812 70.7558 17.7898C70.758 17.804 70.7633 17.8176 70.7711 17.8296L70.7856 17.8432V17.883L70.8014 17.8961V17.9228C70.8012 17.9321 70.8034 17.9413 70.8078 17.9495C70.8127 17.9575 70.8152 17.9667 70.815 17.9761C70.8171 17.9904 70.8226 18.0041 70.8308 18.0159V18.0702Z" fill="#DF3701"/>
<path d="M96.778 17.8373C97.0165 17.6736 97.3055 17.6004 97.5932 17.6309C97.8808 17.6614 98.1481 17.7936 98.3469 18.0038C98.4389 18.0995 98.5074 18.2153 98.5471 18.3421C98.5868 18.4688 98.5966 18.603 98.5757 18.7341C98.4993 19.286 98.3603 19.8273 98.1615 20.3477C97.9484 20.9131 97.6754 21.454 97.3474 21.9614C97.0142 22.4821 96.5693 22.9223 96.0449 23.2498C95.5289 23.5818 94.9278 23.7573 94.3142 23.755C93.8837 23.7563 93.4582 23.6617 93.0689 23.4778C92.6796 23.2939 92.3362 23.0256 92.0638 22.6922C91.5972 22.1283 91.2456 21.4786 91.0286 20.7796C90.0123 22.5859 88.8381 23.4891 87.5061 23.4891C86.9483 23.4991 86.3955 23.3838 85.8883 23.1515C85.3812 22.9193 84.9327 22.5761 84.5759 22.1472C83.7764 21.2177 83.3766 19.9294 83.3766 18.2823C83.3383 16.4806 83.9894 14.7322 85.1969 13.3945C85.7023 12.831 86.3069 12.3651 86.9805 12.0201C87.5711 11.705 88.2279 11.5345 88.8972 11.5226C89.3146 11.5235 89.7274 11.6094 90.1106 11.775C90.1709 9.33101 90.3386 7.60433 90.6139 6.59492C90.6633 6.42178 90.7498 6.26146 90.8673 6.12504C90.9849 5.98862 91.1306 5.87937 91.2945 5.80484C91.636 5.62069 92.0164 5.52054 92.4043 5.51269C92.7797 5.50817 93.1148 5.51947 93.4115 5.5457C93.8179 5.58676 94.1959 5.77303 94.4761 6.07031C94.5837 6.18834 94.6636 6.32897 94.7097 6.48189C94.7559 6.63481 94.7673 6.79613 94.7429 6.954C94.3051 9.81017 94.0183 12.6874 93.8836 15.5738C93.8094 17.0054 93.8589 18.4408 94.0315 19.8638C94.1793 20.847 94.3766 21.45 94.6235 21.6728C94.8541 21.5542 95.0542 21.3839 95.2083 21.1754C95.4728 20.8682 95.6943 20.5265 95.8667 20.1596V20.146H95.8821C96.1199 19.6278 96.2794 19.0772 96.3552 18.5121C96.3743 18.3769 96.4218 18.2473 96.4945 18.1317C96.5673 18.0161 96.6635 17.9172 96.7771 17.8414M89.1477 19.6811C89.606 18.8028 89.9777 17.8819 90.2575 16.9315C90.1972 16.3472 90.1531 15.7231 90.125 15.0592C90.0662 14.8396 89.9867 14.6261 89.8876 14.4215C89.7798 14.2187 89.6427 14.0329 89.4806 13.8702C89.3801 13.749 89.2502 13.6556 89.1034 13.5989C88.8622 13.7905 88.6694 14.0362 88.5408 14.3161C88.2743 14.819 88.0753 15.3549 87.9492 15.9098C87.5727 17.2226 87.5067 18.6049 87.7566 19.9475C87.7913 20.3076 87.948 20.6451 88.2007 20.904C88.59 20.5598 88.9112 20.1456 89.1477 19.6829" fill="#DF3701"/>
<path d="M105.555 17.9213C105.8 17.762 106.096 17.7002 106.384 17.7481C106.668 17.7814 106.928 17.9245 107.108 18.1469C107.194 18.2485 107.255 18.3681 107.289 18.4968C107.322 18.6255 107.325 18.7601 107.3 18.8904C107.135 19.6004 106.827 20.2694 106.395 20.8563C106.162 21.2175 105.889 21.5513 105.581 21.8513L105.567 21.8644C104.778 22.6884 103.755 23.2496 102.636 23.4717C102.374 23.5277 102.106 23.5587 101.837 23.5644H101.675C99.7507 23.5644 98.3151 23.0421 97.3678 21.9974C96.5585 21.0929 96.1539 19.8531 96.1539 18.2781C96.141 17.3225 96.3354 16.3754 96.7238 15.5022C97.0772 14.7023 97.6363 14.0104 98.3442 13.4969C98.8184 13.1338 99.3653 12.8771 99.9477 12.7444C100.53 12.6118 101.134 12.6062 101.719 12.7281C102.325 12.8338 102.885 13.121 103.324 13.5517C103.736 13.9405 103.996 14.4631 104.057 15.026C104.067 15.1941 104.067 15.3626 104.057 15.5307C103.928 16.6197 103.084 17.4211 101.525 17.9348C100.999 18.1016 100.459 18.2216 99.9112 18.2935C99.8801 19.1513 100.085 20.0012 100.504 20.7505C100.621 20.9903 100.802 21.1936 101.026 21.3387C101.25 21.4838 101.509 21.5651 101.776 21.5741C101.916 21.5691 102.055 21.5514 102.191 21.5211C102.884 21.3435 103.511 20.9698 103.996 20.4448C104.172 20.2649 104.33 20.0693 104.469 19.8605C104.471 19.8482 104.476 19.8367 104.484 19.8275C104.493 19.8152 104.503 19.804 104.515 19.794C104.779 19.4233 104.979 19.0105 105.106 18.573C105.129 18.4391 105.181 18.3117 105.257 18.1994C105.334 18.0871 105.434 17.9926 105.55 17.9222M101.466 14.827C101.337 14.838 101.213 14.8762 101.1 14.9393C100.988 15.0023 100.89 15.0886 100.814 15.1924C100.566 15.4892 100.376 15.8291 100.252 16.195C100.432 16.158 100.61 16.1092 100.784 16.049C101.455 15.8192 101.806 15.5801 101.836 15.3317V15.3177C101.84 15.3146 101.843 15.3106 101.846 15.306C101.848 15.3013 101.85 15.2962 101.85 15.291C101.812 15.1262 101.73 14.9748 101.613 14.8528C101.567 14.8336 101.516 14.8245 101.466 14.8261" fill="#DF3701"/>
</svg>
