<svg width="133" height="46" viewBox="0 0 133 46" fill="none" xmlns="http://www.w3.org/2000/svg">
<path d="M3.80754 30.8829V0H13.2903C17.8722 0 21.7146 1.47864 24.8175 4.43591C26.3259 5.83808 27.5205 7.54365 28.3227 9.44048C29.1249 11.3373 29.5165 13.3825 29.4718 15.4415C29.5166 17.5005 29.125 19.5456 28.3228 21.4425C27.5206 23.3393 26.326 25.0449 24.8175 26.447C21.7138 29.4043 17.8714 30.8829 13.2903 30.8829H3.80754Z" fill="#20248A"/>
<path d="M19.2974 3.42279C18.9229 3.26051 18.4945 3.41942 18.079 4.37735C17.5691 5.55202 8.10882 27.7181 8.30254 27.8018C8.49626 27.8854 18.9229 6.1388 19.4328 4.96468C19.8696 3.9579 19.6708 3.58506 19.2974 3.42279ZM16.2159 10.5259C16.0738 10.4641 17.0419 7.75482 17.8111 5.97764C18.449 4.50818 18.6865 3.96071 19.0032 4.09828C19.3199 4.23585 19.0824 4.78276 18.4445 6.25279C17.6752 8.02659 16.3579 10.5848 16.2159 10.523" fill="white"/>
<path d="M1.13478 21.0826C3.05906 20.3206 4.41791 18.6282 5.32419 16.8235C6.43709 14.6084 6.92897 12.149 7.92116 9.88497C8.75781 7.97584 10.0324 6.08413 11.9747 5.17336C13.5851 4.41813 15.7452 4.52987 17.0945 5.76519C18.5926 7.13639 18.1659 9.45935 19.4529 10.9502C19.7795 11.3068 20.178 11.5902 20.6222 11.7815C21.0663 11.9729 21.546 12.0679 22.0296 12.0603C23.0278 12.0455 23.9906 11.6887 24.7574 11.0495C25.1588 10.7245 25.5173 10.3498 25.8243 9.93439C26.1065 9.57556 26.3336 9.17661 26.4981 8.75073C26.7412 8.07411 26.8451 7.13358 26.2443 6.60577C26.1127 6.49946 25.9595 6.42304 25.7954 6.38181C25.6314 6.34057 25.4603 6.33551 25.2941 6.36697C25.1279 6.39843 24.9704 6.46566 24.8328 6.564C24.6951 6.66234 24.5805 6.78944 24.4969 6.93649C24.2691 7.2334 24.1456 7.59715 24.1456 7.97135C24.1456 8.34556 24.2691 8.70931 24.4969 9.00621C24.8111 9.34004 25.1908 9.60548 25.6122 9.78595C26.0336 9.96642 26.4877 10.0581 26.9462 10.0551C27.9365 10.1027 28.928 9.98774 29.8811 9.71484C31.7948 9.19201 33.5227 8.14125 34.8673 6.68269C35.1984 6.32051 35.502 5.93426 35.7758 5.52711C35.846 5.4238 35.6922 5.30251 35.622 5.40863C34.5287 7.01376 33.0008 8.27414 31.217 9.04215C30.3262 9.42935 29.3842 9.68599 28.4201 9.80411C27.4855 9.96374 26.5259 9.88652 25.6289 9.57951C25.2089 9.4213 24.8441 9.14401 24.5794 8.78161C24.4715 8.62508 24.3975 8.44768 24.3623 8.26083C24.3271 8.07399 24.3315 7.88185 24.375 7.69678C24.5064 7.07912 25.1106 6.29918 25.8259 6.57376C26.6334 6.8854 26.5756 7.92138 26.351 8.59519C26.1988 9.01997 25.9803 9.41796 25.7035 9.77435C25.4038 10.1856 25.0526 10.5568 24.6586 10.8788C23.8912 11.5295 22.9132 11.8786 21.9072 11.8609C21.4226 11.8538 20.946 11.7355 20.5145 11.515C20.0829 11.2944 19.7077 10.9777 19.418 10.5891C18.9492 9.76579 18.6263 8.86763 18.4635 7.93429C18.2798 7.06881 17.8562 6.27252 17.2411 5.63661C16.5857 5.08755 15.7984 4.71915 14.9569 4.56788C14.1154 4.4166 13.2491 4.4877 12.4435 4.77413C10.5799 5.38617 9.21431 6.99602 8.29849 8.66369C7.1693 10.7216 6.64991 13.0333 5.81102 15.2103C5.07769 17.1138 4.03159 19.0117 2.32966 20.2122C1.93396 20.491 1.50668 20.7221 1.05672 20.9006C0.942177 20.9495 1.01798 21.1286 1.13478 21.0826Z" fill="white" stroke="white" stroke-width="0.109494" stroke-miterlimit="10"/>
<path d="M43.4712 16.6318V16.6997C43.4749 16.888 43.4343 17.0746 43.3527 17.2444V17.2612L43.3353 17.278C43.3053 17.3459 43.2654 17.4089 43.2168 17.465C43.2171 17.4674 43.2168 17.4698 43.2161 17.472C43.2153 17.4742 43.214 17.4763 43.2123 17.4779C43.2107 17.4796 43.2086 17.4809 43.2064 17.4817C43.2042 17.4824 43.2018 17.4827 43.1994 17.4824L43.1826 17.5161L43.1315 17.5672L43.0972 17.6015L43.0804 17.6183C43.0804 17.6413 43.0742 17.652 43.063 17.652C43.0607 17.6518 43.0584 17.6522 43.0562 17.653C43.054 17.6538 43.0521 17.6551 43.0505 17.6568C43.0489 17.6584 43.0476 17.6604 43.0469 17.6626C43.0461 17.6648 43.0459 17.6671 43.0461 17.6694L43.0124 17.6863L42.995 17.7031C42.9909 17.7081 42.9857 17.7121 42.98 17.715C42.9742 17.7179 42.9678 17.7196 42.9613 17.72C42.9496 17.72 42.9445 17.7261 42.9445 17.7374L42.9102 17.7542L42.8934 17.771C42.8892 17.7761 42.8839 17.7802 42.8781 17.7832C42.8722 17.7862 42.8657 17.788 42.8591 17.7885C42.8569 17.7882 42.8546 17.7884 42.8524 17.7892C42.8502 17.7899 42.8483 17.7912 42.8466 17.7928C42.845 17.7944 42.8438 17.7964 42.843 17.7985C42.8423 17.8007 42.842 17.803 42.8423 17.8053L42.808 17.8221C42.7996 17.8322 42.7892 17.8404 42.7776 17.8464C42.7659 17.8524 42.7532 17.856 42.7401 17.857L42.7064 17.8738L42.689 17.8907H42.6553C42.6466 17.9005 42.6343 17.9066 42.6211 17.9075C42.6099 17.9075 42.6037 17.9075 42.6037 17.9159C42.6037 17.9243 42.5981 17.9249 42.5874 17.9249H42.5531C42.5444 17.9345 42.5324 17.9405 42.5194 17.9417C42.5075 17.9417 42.4958 17.9446 42.4852 17.9502C42.4747 17.9555 42.4632 17.9583 42.4515 17.9586H42.3656L42.3319 17.976H42.2297C41.3033 18.0413 40.3745 17.8896 39.5171 17.533C38.8688 17.2101 38.2928 16.7589 37.8241 16.2067C37.7722 16.1407 37.716 16.0782 37.6557 16.0197C37.2589 16.0875 36.9074 16.5863 36.6012 17.5161C36.1023 19.2766 35.8391 21.0955 35.8184 22.9251C35.9094 24.1604 35.9607 24.8238 35.9723 24.9151L35.9886 25.051L36.006 25.1021V25.17C36.0055 25.3313 35.9826 25.4918 35.938 25.6468C35.8534 25.8625 35.7187 26.0549 35.5449 26.2083C35.3017 26.4392 35.0028 26.6032 34.6774 26.6844C34.2734 26.7965 33.8551 26.8481 33.4359 26.8377C32.3694 26.8377 31.6719 26.5032 31.3432 25.8343C30.9355 25.0179 30.743 22.7784 30.7654 19.1159C30.7373 17.1058 30.8168 15.0958 31.0035 13.0943C31.0174 12.9703 31.0519 12.8496 31.1057 12.7371C31.1912 12.5691 31.2968 12.412 31.4201 12.2694C31.6152 12.0577 31.8696 11.9097 32.1501 11.8449C32.5472 11.7441 32.9597 11.718 33.3663 11.768C33.9219 11.8 34.4613 11.9663 34.9385 12.2526C35.3215 12.4803 35.6085 12.8395 35.746 13.2633C36.0202 12.9311 36.3628 12.6619 36.7504 12.474C37.1379 12.286 37.5614 12.1837 37.992 12.1739C38.2928 12.1678 38.5915 12.2252 38.8685 12.3424C39.1249 12.4567 39.3496 12.6317 39.5232 12.8522C39.6699 13.0315 39.8061 13.219 39.9315 13.4138C40.045 13.606 40.1472 13.8048 40.2375 14.0089C40.4187 14.3717 40.5603 14.6326 40.6625 14.7917C40.8003 14.9805 40.9852 15.13 41.1988 15.2252C41.5047 15.3664 41.8396 15.4336 42.1764 15.4211H42.3296C42.3715 15.4233 42.4124 15.4348 42.4493 15.4548C42.4895 15.4526 42.5297 15.4583 42.5677 15.4717H42.5851C42.7185 15.5224 42.8444 15.5912 42.9591 15.6761C43.0674 15.7399 43.1603 15.827 43.2309 15.931C43.2348 15.9502 43.2437 15.968 43.2567 15.9826C43.2698 16.0003 43.2838 16.0172 43.2988 16.0332L43.3505 16.1354L43.3847 16.2033V16.2202L43.401 16.2544V16.2713C43.401 16.2831 43.4044 16.2887 43.41 16.2887C43.4156 16.2887 43.4184 16.2943 43.4184 16.3055V16.3392C43.4273 16.355 43.4328 16.3723 43.4347 16.3903L43.4527 16.4071V16.4414C43.4525 16.4533 43.4552 16.465 43.4605 16.4757C43.4662 16.486 43.469 16.4976 43.4689 16.5093V16.6284L43.4712 16.6318Z" fill="#2C3796"/>
<path d="M51.7974 19.815C52.0021 19.6659 52.2465 19.5812 52.4996 19.5716C52.7527 19.562 53.0028 19.6281 53.2182 19.7613C53.4336 19.8945 53.6044 20.0888 53.7088 20.3195C53.8133 20.5502 53.8467 20.8067 53.8048 21.0565C53.4641 22.4618 52.7869 23.7633 51.8316 24.8489L51.8153 24.8663C50.9452 25.8995 49.7628 26.6218 48.4463 26.9242C48.1451 26.9958 47.8372 27.0357 47.5277 27.0433H47.3407C45.1295 27.0433 43.4796 26.3741 42.391 25.0359C41.4611 23.8799 40.9962 22.2925 40.9962 20.2737C40.9799 19.0574 41.2023 17.8496 41.6509 16.7188C42.0406 15.7171 42.6818 14.8327 43.5129 14.1511C44.0356 13.692 44.6596 13.3633 45.3338 13.1918C46.008 13.0203 46.7133 13.011 47.3918 13.1645C48.1041 13.3088 48.751 13.6785 49.2369 14.219C49.719 14.7376 50.0153 15.4016 50.0792 16.1068C50.0898 16.3224 50.0898 16.538 50.0792 16.7525C49.9294 18.1481 48.9599 19.1745 47.1706 19.8318C46.5693 20.0446 45.9487 20.1983 45.3176 20.2906C45.28 21.379 45.5141 22.4597 45.9987 23.435C46.1172 23.731 46.3173 23.9873 46.5758 24.1741C46.8342 24.3609 47.1404 24.4704 47.4586 24.4901C47.6192 24.4835 47.7787 24.4608 47.9347 24.4222C48.7505 24.1829 49.4748 23.7023 50.0123 23.0437C50.2154 22.8108 50.3973 22.5603 50.5559 22.2952C50.5576 22.2798 50.5636 22.2652 50.5733 22.253C50.5833 22.2377 50.5947 22.2234 50.6075 22.2104C50.9152 21.728 51.1447 21.2 51.2875 20.646C51.311 20.4796 51.3684 20.3198 51.4561 20.1765C51.5438 20.0332 51.6599 19.9094 51.7974 19.8127M47.1037 15.8491C46.9517 15.8656 46.8054 15.9163 46.6757 15.9973C46.546 16.0783 46.4363 16.1875 46.3547 16.3168C46.0668 16.7043 45.8483 17.1388 45.7089 17.601C45.9169 17.5532 46.1213 17.4907 46.3204 17.414C47.0919 17.1197 47.4947 16.8135 47.5288 16.4954V16.4785C47.5337 16.4743 47.5378 16.4692 47.5407 16.4634C47.5436 16.4576 47.5452 16.4513 47.5456 16.4448C47.5046 16.2375 47.411 16.0441 47.2738 15.8833C47.221 15.8593 47.1634 15.8475 47.1054 15.8491" fill="#2C3796"/>
<path d="M62.3508 20.5265C62.4936 20.6171 62.6168 20.7354 62.7133 20.8743C62.8097 21.0133 62.8774 21.1701 62.9123 21.3356C62.953 21.4977 62.9604 21.6664 62.9341 21.8314C62.9077 21.9964 62.8482 22.1544 62.759 22.2958C61.8547 23.6735 60.5662 24.7556 59.053 25.4082C59.0698 26.5101 58.8003 27.5974 58.2709 28.5639C57.7958 29.4541 57.0515 30.1714 56.1444 30.6134C55.5732 30.8956 54.9443 31.0413 54.3072 31.039C53.2282 31.0262 52.1854 30.6483 51.3486 29.9671C50.9197 29.6632 50.6123 29.2172 50.4811 28.7082C50.3123 28.0473 50.3939 27.3473 50.7101 26.7429C51.0375 26.0757 51.5636 25.5265 52.2161 25.1707C52.8691 24.8223 53.5592 24.5486 54.2735 24.3548C53.9464 23.7234 53.5346 23.1397 53.0494 22.6198C52.6971 22.2009 52.4278 21.8666 52.2414 21.6169C52.055 21.3672 51.8223 21.0155 51.5434 20.5618C51.2705 20.1191 51.067 19.6371 50.9398 19.1328C50.8132 18.6152 50.7504 18.0839 50.7528 17.551C50.7294 16.3745 51.0621 15.2183 51.7074 14.2342C52.0294 13.7299 52.4582 13.3025 52.9637 12.9823C53.4691 12.6621 54.0388 12.4569 54.6323 12.3812C55.1128 12.2539 55.6237 12.3141 56.0613 12.5497C56.3219 12.6699 56.5405 12.8653 56.6891 13.1107C56.8377 13.3562 56.9095 13.6405 56.8952 13.9271C56.8769 14.4511 56.6786 14.9528 56.3337 15.3477C55.9426 15.8335 55.4778 16.2551 54.9563 16.597V16.6139C55.0691 17.0645 55.2317 17.5012 55.4409 17.916C55.6192 18.2881 55.8206 18.6488 56.0439 18.9958C56.2251 19.2683 56.4916 19.6427 56.8435 20.1188C57.4949 20.9574 58.0539 21.8639 58.5106 22.8225C59.3543 22.3828 60.07 21.7325 60.5882 20.9347C60.6788 20.792 60.797 20.6688 60.9358 20.5723C61.0747 20.4759 61.2314 20.4082 61.3968 20.3732C61.5589 20.3329 61.7274 20.3257 61.8924 20.3519C62.0573 20.3782 62.2153 20.4373 62.3569 20.5259M53.9164 27.62C54.041 27.4601 54.128 27.2741 54.1707 27.0759C53.9364 27.1602 53.709 27.2627 53.4907 27.3825C53.2697 27.5005 53.0914 27.6849 52.9809 27.9097H53.0152C53.177 27.9293 53.3411 27.9135 53.4962 27.8635C53.6513 27.8134 53.7937 27.7304 53.9136 27.62" fill="#2C3796"/>
<path d="M71.7404 20.5264C71.8832 20.6171 72.0064 20.7354 72.1028 20.8744C72.1992 21.0133 72.2669 21.1701 72.3019 21.3356C72.3427 21.4977 72.3501 21.6663 72.3237 21.8314C72.2974 21.9964 72.2378 22.1544 72.1487 22.2958C71.2446 23.6736 69.956 24.7558 68.4427 25.4082C68.4594 26.51 68.1901 27.5972 67.6611 28.5639C67.1859 29.454 66.4417 30.1713 65.5346 30.6134C64.9634 30.8954 64.3345 31.0411 63.6974 31.039C62.6183 31.0261 61.5752 30.6483 60.7382 29.9671C60.3095 29.663 60.0022 29.2171 59.8707 28.7082C59.7018 28.0472 59.7836 27.3471 60.1004 26.7429C60.4276 26.0758 60.9535 25.5265 61.6058 25.1707C62.2589 24.8223 62.9493 24.5486 63.6637 24.3548C63.3364 23.7234 62.9243 23.1396 62.439 22.6197C62.0875 22.2009 61.8184 21.8666 61.6316 21.6169C61.4448 21.3672 61.2122 21.0155 60.9337 20.5618C60.6606 20.1191 60.4569 19.6371 60.3295 19.1328C60.203 18.6151 60.1404 18.0839 60.143 17.551C60.1198 16.3745 60.4525 15.2184 61.0976 14.2342C61.4196 13.7298 61.8486 13.3024 62.3541 12.9822C62.8597 12.662 63.4295 12.4568 64.0231 12.3812C64.5033 12.2539 65.0141 12.3141 65.4516 12.5497C65.7122 12.6697 65.9309 12.8651 66.0795 13.1106C66.2281 13.3561 66.2998 13.6404 66.2854 13.927C66.2672 14.4511 66.0689 14.9528 65.7239 15.3477C65.3326 15.8335 64.8677 16.2551 64.346 16.597V16.6139C64.4591 17.0644 64.6216 17.5011 64.8305 17.916C65.0088 18.2883 65.2104 18.6489 65.4341 18.9958C65.615 19.2683 65.8815 19.6426 66.2337 20.1188C66.8849 20.9575 67.4439 21.864 67.9009 22.8224C68.7445 22.3828 69.4602 21.7325 69.9784 20.9347C70.0689 20.792 70.1871 20.6689 70.3258 20.5724C70.4646 20.476 70.6212 20.4083 70.7864 20.3732C70.9486 20.3329 71.1173 20.3256 71.2823 20.3519C71.4474 20.3781 71.6055 20.4373 71.7472 20.5259M63.3055 27.62C63.4303 27.4601 63.5174 27.2741 63.5604 27.0759C63.326 27.16 63.0986 27.2625 62.8804 27.3825C62.6591 27.5003 62.4805 27.6847 62.37 27.9097H62.4043C62.566 27.9293 62.7301 27.9135 62.8853 27.8635C63.0404 27.8135 63.1828 27.7304 63.3027 27.62" fill="#2C3796"/>
<path d="M95.509 15.5279C94.1183 15.5223 92.7571 15.9289 91.5975 16.6965C90.4378 17.4641 89.5316 18.5582 88.9935 19.8405C88.4553 21.1229 88.3093 22.5359 88.5738 23.9012C88.8384 25.2665 89.5016 26.5228 90.4798 27.5113C91.458 28.4999 92.7072 29.1763 94.0696 29.4552C95.4321 29.7341 96.8466 29.6029 98.1345 29.0783C99.4225 28.5536 100.526 27.659 101.306 26.5075C102.085 25.356 102.506 23.9992 102.515 22.6085C102.529 21.6811 102.358 20.7601 102.012 19.8996C101.666 19.0391 101.151 18.2563 100.499 17.597C99.8466 16.9376 99.0692 16.415 98.2124 16.0598C97.3556 15.7045 96.4365 15.5237 95.509 15.5279ZM93.7644 21.9852C93.5311 21.9852 93.3032 21.9161 93.1093 21.7865C92.9153 21.6569 92.7642 21.4728 92.675 21.2573C92.5857 21.0419 92.5624 20.8048 92.6079 20.576C92.6534 20.3473 92.7657 20.1372 92.9306 19.9723C93.0955 19.8074 93.3056 19.6951 93.5343 19.6496C93.7631 19.6041 94.0002 19.6274 94.2156 19.7167C94.4311 19.8059 94.6152 19.9571 94.7448 20.151C94.8744 20.3449 94.9435 20.5729 94.9435 20.8061C94.9435 21.1188 94.8193 21.4187 94.5982 21.6399C94.377 21.861 94.0771 21.9852 93.7644 21.9852ZM97.2002 21.9852C96.967 21.9852 96.7391 21.9161 96.5451 21.7865C96.3512 21.6569 96.2001 21.4728 96.1108 21.2573C96.0216 21.0419 95.9982 20.8048 96.0437 20.576C96.0892 20.3473 96.2015 20.1372 96.3664 19.9723C96.5314 19.8074 96.7414 19.6951 96.9702 19.6496C97.1989 19.6041 97.436 19.6274 97.6515 19.7167C97.867 19.8059 98.0511 19.9571 98.1807 20.151C98.3103 20.3449 98.3794 20.5729 98.3794 20.8061C98.3794 21.1188 98.2552 21.4187 98.034 21.6399C97.8129 21.861 97.513 21.9852 97.2002 21.9852ZM93.7644 25.5115C93.5311 25.5115 93.3032 25.4424 93.1093 25.3128C92.9153 25.1832 92.7642 24.9991 92.675 24.7836C92.5857 24.5681 92.5624 24.331 92.6079 24.1023C92.6534 23.8736 92.7657 23.6635 92.9306 23.4985C93.0955 23.3336 93.3056 23.2213 93.5343 23.1758C93.7631 23.1303 94.0002 23.1537 94.2156 23.2429C94.4311 23.3322 94.6152 23.4833 94.7448 23.6772C94.8744 23.8711 94.9435 24.0991 94.9435 24.3323C94.9435 24.6451 94.8193 24.945 94.5982 25.1661C94.377 25.3873 94.0771 25.5115 93.7644 25.5115ZM97.2002 25.5115C96.967 25.5115 96.7391 25.4424 96.5451 25.3128C96.3512 25.1832 96.2001 24.9991 96.1108 24.7836C96.0216 24.5681 95.9982 24.331 96.0437 24.1023C96.0892 23.8736 96.2015 23.6635 96.3664 23.4985C96.5314 23.3336 96.7414 23.2213 96.9702 23.1758C97.1989 23.1303 97.436 23.1537 97.6515 23.2429C97.867 23.3322 98.0511 23.4833 98.1807 23.6772C98.3103 23.8711 98.3794 24.0991 98.3794 24.3323C98.3794 24.6451 98.2552 24.945 98.034 25.1661C97.8129 25.3873 97.513 25.5115 97.2002 25.5115Z" fill="#DB3804"/>
<path d="M87.7 22.4422V22.4916C87.7812 23.3123 87.6547 24.1403 87.3322 24.8994C86.9953 25.7222 86.4952 26.4682 85.8622 27.0926C84.2563 28.6648 82.143 29.4509 79.5222 29.4509C77.2465 29.5217 75.0348 28.692 73.367 27.142C72.2132 26.0808 71.347 24.7446 70.8492 23.2581C70.3522 21.8592 70.1159 20.381 70.1518 18.8969C70.2228 16.9138 70.7311 14.9709 71.6404 13.2071C72.4826 11.5269 73.7029 10.0648 75.2054 8.9357C76.3214 8.09515 77.5867 7.47399 78.9343 7.10519C80.2559 6.74303 81.6363 6.64759 82.9952 6.82444C83.599 6.87151 84.1809 7.07186 84.6857 7.40651C85.1905 7.74117 85.6017 8.19908 85.8802 8.73693C86.223 9.38426 86.364 10.1194 86.285 10.8476C86.2011 11.6345 85.9229 12.3882 85.4753 13.0409C85.4425 13.1027 85.3994 13.1586 85.3479 13.206L85.3288 13.2228C85.1627 13.3954 84.9536 13.5204 84.7229 13.585H84.6864L84.6673 13.6018H84.6488C84.6129 13.6149 84.5746 13.6204 84.5365 13.6181L84.5191 13.635H84.0963L84.0587 13.6181L84.0222 13.6018H83.9486C83.9311 13.5928 83.9121 13.5871 83.8925 13.585C83.8668 13.5882 83.8408 13.5824 83.8189 13.5687C83.8071 13.5687 83.8004 13.5637 83.8004 13.5524L83.7639 13.5356H83.7268C83.7052 13.5309 83.6855 13.5195 83.6707 13.503C83.6476 13.4992 83.6256 13.4906 83.6061 13.4777C83.5832 13.4666 83.5617 13.4529 83.5421 13.4368H83.5241L83.5056 13.4205L83.4696 13.3873C83.4626 13.3873 83.4556 13.3858 83.4492 13.383C83.4427 13.3802 83.4369 13.3762 83.432 13.3711L83.4129 13.3548C83.4083 13.3497 83.4026 13.3456 83.3964 13.3427C83.3901 13.3398 83.3833 13.3382 83.3764 13.3379L83.3399 13.3048C83.2524 13.2295 83.1779 13.1403 83.1193 13.0409H83.1013L83.0828 13.0078C83.0777 13.0039 83.0734 12.999 83.0703 12.9934C83.0673 12.9878 83.0654 12.9816 83.0648 12.9752V12.9583C83.0593 12.9546 83.0548 12.9497 83.0515 12.9439C83.0482 12.9382 83.0462 12.9318 83.0457 12.9252C83.0457 12.9151 83.0429 12.9089 83.0361 12.9089C83.0294 12.9089 83.0283 12.9039 83.0283 12.8927C83.0283 12.8814 83.0244 12.8758 83.0193 12.8758C83.0143 12.8758 83.0092 12.8708 83.0092 12.8595C83.007 12.8418 83.0007 12.8249 82.9907 12.8101L82.9345 12.6125V12.563C82.9345 12.5524 82.9278 12.5462 82.9154 12.5462V12.2346C82.9207 12.2306 82.9251 12.2257 82.9284 12.22C82.9317 12.2143 82.9338 12.208 82.9345 12.2014V12.1846L82.9525 12.1677V12.1352C82.9531 12.121 82.9563 12.1071 82.9621 12.0942C82.9669 12.0808 82.9699 12.0668 82.971 12.0526C82.9695 12.041 82.9703 12.0291 82.9734 12.0177C82.9765 12.0063 82.9818 11.9957 82.989 11.9864L83.0075 11.9538L83.0266 11.9207V11.9044C83.0277 11.8914 83.0315 11.8788 83.0378 11.8673C83.044 11.8559 83.0527 11.846 83.0631 11.8381C83.2977 11.4543 83.4449 11.0235 83.4944 10.5764C83.5251 10.1864 83.473 9.93089 83.3383 9.80998C83.2267 9.67875 83.0845 9.57697 82.9243 9.51362C82.7641 9.45027 82.5908 9.42728 82.4196 9.44668C81.3998 9.44396 80.4033 9.75185 79.5627 10.3294C78.6736 10.9315 77.9347 11.73 77.4031 12.663C76.8178 13.6841 76.373 14.7796 76.0808 15.9197C75.762 17.1225 75.6012 18.3617 75.6024 19.606C75.5266 21.4125 75.9529 23.2047 76.8338 24.7837C77.1286 25.3485 77.5721 25.8221 78.1163 26.1534C78.6605 26.4847 79.2849 26.6611 79.922 26.6636C81.2664 26.7433 82.5915 26.3135 83.6331 25.4598C84.07 25.0766 84.4101 24.5956 84.6258 24.056C84.822 23.5853 84.9279 23.0818 84.938 22.5719V22.5551C84.9393 22.5361 84.9425 22.5173 84.9475 22.4989C84.9518 22.4804 84.9548 22.4617 84.9565 22.4428V22.3771L84.9745 22.3439V22.2614C84.9745 22.2502 84.9784 22.2451 84.984 22.2451C84.9896 22.2451 84.993 22.2389 84.993 22.2283C84.993 22.2176 84.9958 22.212 85.0031 22.212C85.0104 22.212 85.0121 22.2008 85.0121 22.1789L85.0301 22.1457L85.0486 22.1289V22.0609C85.0486 22.0503 85.0514 22.0447 85.057 22.0447C85.0626 22.0447 85.0666 22.039 85.0666 22.0278C85.0666 22.0166 85.0733 22.0115 85.0851 22.0115C85.0969 22.0115 85.1031 22.0059 85.1031 21.9952C85.1031 21.9846 85.107 21.9784 85.1126 21.9784C85.1182 21.9784 85.1216 21.9734 85.1216 21.9621C85.1233 21.949 85.1302 21.9371 85.1407 21.929C85.1459 21.925 85.1501 21.9201 85.1532 21.9144C85.1563 21.9086 85.1582 21.9023 85.1587 21.8959V21.8796L85.1772 21.8633C85.1907 21.8509 85.203 21.8372 85.2137 21.8223C85.2244 21.8073 85.2366 21.7933 85.2502 21.7808C85.3125 21.7145 85.3806 21.6538 85.4534 21.5994L85.4899 21.5663C85.4899 21.5556 85.4961 21.55 85.5073 21.55C85.5213 21.5493 85.5345 21.5435 85.5444 21.5337C85.5541 21.5238 85.5671 21.5178 85.5809 21.5168C85.596 21.5007 85.6155 21.4894 85.6371 21.4843L85.6736 21.4674C85.6835 21.4576 85.6967 21.4518 85.7106 21.4511H85.7291L85.7471 21.4349H85.7656C85.7774 21.4349 85.7847 21.4349 85.7847 21.4259C85.7847 21.4169 85.7904 21.418 85.8021 21.418L85.8212 21.4017L85.8392 21.3855H85.9133L85.9307 21.3686L85.9498 21.3523H86.0228C86.0325 21.3424 86.0455 21.3364 86.0593 21.3355H86.1329C86.1524 21.3336 86.1715 21.3281 86.189 21.3192H86.4659C86.5773 21.3337 86.6876 21.3559 86.796 21.3855C86.8179 21.3877 86.8392 21.3932 86.8595 21.4017C86.8829 21.409 86.905 21.4202 86.9246 21.4349C86.9423 21.4497 86.9611 21.4632 86.9808 21.4753C86.9968 21.4886 87.0162 21.4974 87.0369 21.5006C87.0369 21.5118 87.0431 21.5168 87.0549 21.5168C87.0767 21.5215 87.0964 21.5331 87.111 21.55C87.1357 21.55 87.1481 21.5556 87.1481 21.5663C87.2004 21.6007 87.2498 21.6394 87.2957 21.6819L87.3132 21.6982C87.3231 21.7084 87.3366 21.7144 87.3508 21.7151C87.3626 21.7151 87.3687 21.7207 87.3687 21.7313C87.3687 21.742 87.3805 21.7589 87.4064 21.7808C87.4064 21.8032 87.412 21.8139 87.4238 21.8139C87.4356 21.8139 87.4429 21.8195 87.4429 21.8302C87.4433 21.8366 87.445 21.8429 87.448 21.8486C87.451 21.8543 87.4552 21.8593 87.4603 21.8633C87.4644 21.8822 87.4742 21.8995 87.4883 21.9127C87.5022 21.9303 87.5174 21.9469 87.5338 21.9621C87.5338 21.9734 87.54 21.9784 87.5524 21.9784L87.5703 22.0115V22.0278C87.5703 22.039 87.5737 22.0447 87.5804 22.0447C87.5861 22.0447 87.5894 22.0503 87.5894 22.0609C87.5894 22.0716 87.5922 22.0772 87.5984 22.0772C87.6046 22.0772 87.6068 22.0834 87.6068 22.0941C87.6096 22.1117 87.6161 22.1285 87.6259 22.1435L87.6439 22.1603V22.2097L87.6635 22.226V22.2592C87.6633 22.2707 87.666 22.2821 87.6714 22.2923C87.6775 22.3022 87.6807 22.3137 87.6804 22.3254C87.683 22.3432 87.6898 22.3601 87.7 22.3748V22.4422Z" fill="#DF3701"/>
<path d="M119.917 22.1537C120.213 21.9504 120.572 21.8595 120.929 21.8974C121.286 21.9353 121.618 22.0994 121.865 22.3603C121.979 22.4792 122.064 22.623 122.113 22.7803C122.162 22.9377 122.175 23.1043 122.149 23.2671C122.054 23.9523 121.881 24.6244 121.634 25.2706C121.37 25.9725 121.031 26.6441 120.624 27.274C120.21 27.9206 119.657 28.4671 119.006 28.8738C118.366 29.286 117.619 29.5039 116.858 29.501C116.323 29.5027 115.795 29.3851 115.311 29.1569C114.828 28.9286 114.402 28.5954 114.064 28.1815C113.484 27.4814 113.048 26.6747 112.778 25.8068C111.516 28.0495 110.058 29.1708 108.405 29.1708C107.712 29.1833 107.026 29.0401 106.396 28.7518C105.766 28.4634 105.21 28.0373 104.767 27.5048C103.774 26.3507 103.278 24.7512 103.278 22.7062C103.23 20.4692 104.038 18.2984 105.538 16.6374C106.165 15.9378 106.916 15.3594 107.752 14.931C108.485 14.5398 109.301 14.3281 110.132 14.3133C110.65 14.3145 111.163 14.4211 111.638 14.6267C111.713 11.5923 111.922 9.44843 112.263 8.19514C112.325 7.98018 112.432 7.78112 112.578 7.61174C112.724 7.44237 112.905 7.30672 113.108 7.21419C113.532 6.98554 114.005 6.8612 114.486 6.85146C114.952 6.84584 115.368 6.85988 115.737 6.89245C116.241 6.94342 116.711 7.17469 117.059 7.5438C117.192 7.69033 117.291 7.86495 117.349 8.05481C117.406 8.24467 117.42 8.44497 117.39 8.64098C116.846 12.1872 116.49 15.7596 116.323 19.3433C116.231 21.1208 116.292 22.9029 116.507 24.6698C116.69 25.8905 116.935 26.6392 117.242 26.9158C117.528 26.7685 117.776 26.5571 117.968 26.2982C118.296 25.9168 118.571 25.4925 118.785 25.037V25.0202H118.804C119.1 24.3768 119.298 23.6931 119.392 22.9914C119.415 22.8236 119.474 22.6626 119.565 22.5191C119.655 22.3756 119.775 22.2528 119.916 22.1587M110.443 24.4429C111.012 23.3524 111.473 22.209 111.821 21.029C111.746 20.3035 111.691 19.5286 111.656 18.7043C111.583 18.4317 111.485 18.1666 111.362 17.9126C111.228 17.6608 111.057 17.4301 110.856 17.2281C110.731 17.0776 110.57 16.9616 110.388 16.8912C110.088 17.1291 109.849 17.4342 109.689 17.7818C109.358 18.4061 109.111 19.0714 108.955 19.7605C108.487 21.3904 108.405 23.1067 108.716 24.7737C108.759 25.2208 108.953 25.6398 109.267 25.9612C109.75 25.5339 110.149 25.0197 110.443 24.4452" fill="#DF3701"/>
<path d="M130.813 22.2615C131.117 22.0638 131.484 21.9871 131.842 22.0464C132.195 22.0878 132.518 22.2656 132.741 22.5417C132.847 22.6678 132.924 22.8163 132.965 22.9761C133.006 23.1359 133.011 23.3029 132.979 23.4648C132.774 24.3464 132.392 25.1769 131.856 25.9057C131.566 26.3541 131.227 26.7685 130.845 27.141L130.828 27.1573C129.849 28.1803 128.578 28.8771 127.189 29.1529C126.863 29.2224 126.531 29.2609 126.197 29.268H125.995C123.606 29.268 121.824 28.6195 120.648 27.3224C119.643 26.1994 119.141 24.6601 119.141 22.7045C119.124 21.518 119.366 20.3422 119.848 19.258C120.287 18.2649 120.981 17.4058 121.86 16.7683C122.449 16.3174 123.128 15.9987 123.851 15.834C124.574 15.6692 125.324 15.6623 126.05 15.8137C126.802 15.945 127.498 16.3015 128.043 16.8362C128.554 17.319 128.877 17.9678 128.953 18.6667C128.965 18.8754 128.965 19.0847 128.953 19.2934C128.793 20.6455 127.745 21.6405 125.809 22.2783C125.156 22.4854 124.485 22.6344 123.806 22.7236C123.767 23.7887 124.021 24.8439 124.541 25.7743C124.687 26.072 124.911 26.3244 125.189 26.5046C125.468 26.6847 125.79 26.7857 126.121 26.7968C126.294 26.7906 126.467 26.7686 126.636 26.7311C127.496 26.5106 128.275 26.0465 128.878 25.3947C129.095 25.1714 129.292 24.9285 129.465 24.6692C129.467 24.654 129.473 24.6397 129.483 24.6283C129.494 24.613 129.507 24.5991 129.521 24.5867C129.85 24.1265 130.098 23.6139 130.256 23.0706C130.284 22.9044 130.348 22.7462 130.443 22.6068C130.538 22.4674 130.662 22.3501 130.806 22.2626M125.735 18.4197C125.576 18.4333 125.421 18.4808 125.282 18.5591C125.142 18.6373 125.021 18.7445 124.926 18.8734C124.619 19.2419 124.382 19.6639 124.228 20.1182C124.452 20.0723 124.673 20.0117 124.889 19.9369C125.723 19.6516 126.158 19.3548 126.195 19.0463V19.0289C126.2 19.025 126.204 19.0201 126.207 19.0143C126.211 19.0086 126.212 19.0023 126.213 18.9958C126.166 18.7912 126.064 18.6032 125.919 18.4517C125.861 18.4279 125.798 18.4166 125.735 18.4185" fill="#DF3701"/>
<path d="M31.537 44.9365V39.0089H33.2235C33.7361 39.0089 34.1426 39.1343 34.4429 39.3851C34.7433 39.6358 34.8935 39.9624 34.8935 40.3647C34.8935 40.7009 34.8026 40.993 34.6207 41.2411C34.4388 41.4891 34.188 41.6654 33.8684 41.7702V41.7867C34.2679 41.8335 34.5876 41.9851 34.8274 42.2414C35.0671 42.4949 35.187 42.8256 35.187 43.2335C35.187 43.7405 35.0051 44.1511 34.6414 44.4653C34.2776 44.7794 33.8188 44.9365 33.2649 44.9365H31.537ZM32.2315 39.6372V41.5511H32.9424C33.3227 41.5511 33.6217 41.4601 33.8394 41.2783C34.0571 41.0936 34.166 40.8346 34.166 40.5011C34.166 39.9252 33.7871 39.6372 33.0292 39.6372H32.2315ZM32.2315 42.1753V44.3082H33.1739C33.5818 44.3082 33.8973 44.2117 34.1205 44.0188C34.3465 43.8259 34.4595 43.5614 34.4595 43.2252C34.4595 42.5252 33.9827 42.1753 33.0292 42.1753H32.2315ZM39.9696 39.0089L38.0144 42.7457V44.9365H37.3199V42.7622L35.4143 39.0089H36.2038L37.5307 41.6875C37.5473 41.7206 37.5955 41.8418 37.6754 42.0512H37.6878C37.7154 41.9575 37.7677 41.8363 37.8449 41.6875L39.2338 39.0089H39.9696ZM47.3687 44.9365H46.542L45.5499 43.2748C45.459 43.1205 45.3708 42.9896 45.2854 42.8821C45.1999 42.7719 45.1118 42.6823 45.0208 42.6134C44.9326 42.5445 44.8362 42.4949 44.7315 42.4646C44.6295 42.4315 44.5138 42.415 44.3842 42.415H43.8138V44.9365H43.1194V39.0089H44.8885C45.1476 39.0089 45.3859 39.042 45.6036 39.1081C45.8241 39.1715 46.0143 39.2693 46.1741 39.4016C46.3367 39.5339 46.4634 39.6992 46.5544 39.8976C46.6453 40.0933 46.6908 40.3234 46.6908 40.5879C46.6908 40.7946 46.6591 40.9848 46.5957 41.1584C46.5351 41.3292 46.4469 41.4822 46.3312 41.6172C46.2182 41.7522 46.0804 41.868 45.9178 41.9644C45.758 42.0581 45.5775 42.1312 45.3763 42.1835V42.2001C45.4755 42.2441 45.5609 42.2951 45.6326 42.353C45.707 42.4081 45.7773 42.4742 45.8434 42.5514C45.9095 42.6286 45.9743 42.7168 46.0377 42.816C46.1038 42.9124 46.1768 43.0254 46.2568 43.1549L47.3687 44.9365ZM43.8138 39.6372V41.7867H44.7563C44.9299 41.7867 45.0897 41.7605 45.2358 41.7082C45.3846 41.6558 45.5127 41.5814 45.6202 41.4849C45.7277 41.3857 45.8117 41.2659 45.8723 41.1253C45.933 40.982 45.9633 40.8222 45.9633 40.6458C45.9633 40.3289 45.8599 40.0823 45.6533 39.9059C45.4493 39.7268 45.1531 39.6372 44.7645 39.6372H43.8138ZM52.7754 44.9365H52.0066L51.3783 43.2748H48.8651L48.274 44.9365H47.501L49.7744 39.0089H50.4937L52.7754 44.9365ZM51.1509 42.6506L50.2209 40.125C50.1906 40.0423 50.1602 39.91 50.1299 39.7282H50.1134C50.0858 39.8963 50.0542 40.0285 50.0183 40.125L49.0965 42.6506H51.1509ZM55.5573 42.8118C55.5573 43.5145 55.4085 44.0615 55.1109 44.4529C54.8133 44.8414 54.4151 45.0357 53.9163 45.0357C53.6848 45.0357 53.4947 45.0026 53.3459 44.9365V44.2503C53.4947 44.3578 53.6876 44.4115 53.9246 44.4115C54.5501 44.4115 54.8629 43.881 54.8629 42.8201V39.0089H55.5573V42.8118ZM59.1122 44.6967V43.8783C59.2059 43.961 59.3175 44.0354 59.4471 44.1015C59.5793 44.1676 59.7171 44.2241 59.8604 44.271C60.0065 44.3151 60.1525 44.3495 60.2986 44.3743C60.4446 44.3991 60.5797 44.4115 60.7037 44.4115C61.1308 44.4115 61.4491 44.333 61.6585 44.1759C61.8707 44.0161 61.9768 43.7874 61.9768 43.4897C61.9768 43.3299 61.941 43.1907 61.8693 43.0722C61.8005 42.9537 61.704 42.8463 61.58 42.7498C61.456 42.6506 61.3086 42.5569 61.1377 42.4687C60.9696 42.3778 60.7877 42.2827 60.5921 42.1835C60.3854 42.0788 60.1925 41.9727 60.0134 41.8652C59.8342 41.7578 59.6785 41.6393 59.5463 41.5097C59.414 41.3802 59.3093 41.2342 59.2321 41.0716C59.1577 40.9062 59.1205 40.7133 59.1205 40.4929C59.1205 40.2228 59.1798 39.9886 59.2983 39.7902C59.4167 39.589 59.5724 39.4237 59.7653 39.2941C59.9583 39.1646 60.1773 39.0682 60.4226 39.0048C60.6706 38.9414 60.9228 38.9097 61.179 38.9097C61.7633 38.9097 62.189 38.98 62.4563 39.1205V39.9018C62.1063 39.6593 61.6572 39.538 61.1088 39.538C60.9572 39.538 60.8056 39.5546 60.6541 39.5876C60.5025 39.6179 60.3675 39.6689 60.249 39.7406C60.1305 39.8122 60.034 39.9045 59.9596 40.0175C59.8852 40.1305 59.848 40.2683 59.848 40.4309C59.848 40.5824 59.8756 40.7133 59.9307 40.8236C59.9886 40.9338 60.0726 41.0344 60.1828 41.1253C60.2931 41.2163 60.4267 41.3044 60.5838 41.3899C60.7436 41.4753 60.9269 41.569 61.1336 41.671C61.3458 41.7757 61.5469 41.8859 61.7371 42.0016C61.9272 42.1174 62.0939 42.2455 62.2372 42.3861C62.3805 42.5266 62.4935 42.6823 62.5762 42.8532C62.6616 43.024 62.7043 43.2197 62.7043 43.4401C62.7043 43.7322 62.6465 43.9803 62.5307 44.1842C62.4177 44.3853 62.2634 44.5493 62.0678 44.6761C61.8749 44.8028 61.6516 44.8938 61.3981 44.9489C61.1446 45.0068 60.8773 45.0357 60.5962 45.0357C60.5025 45.0357 60.3868 45.0274 60.249 45.0109C60.1112 44.9971 59.9707 44.9751 59.8274 44.9448C59.6841 44.9172 59.5476 44.8828 59.4181 44.8414C59.2914 44.7973 59.1894 44.7491 59.1122 44.6967ZM67.0281 44.9365H63.8865V39.0089H66.8958V39.6372H64.581V41.6089H66.7222V42.2331H64.581V44.3082H67.0281V44.9365ZM71.2443 44.9365H68.169V39.0089H68.8634V44.3082H71.2443V44.9365ZM75.2953 44.9365H72.1537V39.0089H75.163V39.6372H72.8482V41.6089H74.9894V42.2331H72.8482V44.3082H75.2953V44.9365ZM80.4705 44.6885C80.0324 44.92 79.4867 45.0357 78.8336 45.0357C77.9904 45.0357 77.3152 44.7643 76.8082 44.2214C76.3011 43.6785 76.0476 42.9661 76.0476 42.0843C76.0476 41.1363 76.3328 40.3702 76.9032 39.786C77.4737 39.2018 78.1971 38.9097 79.0734 38.9097C79.6355 38.9097 80.1013 38.991 80.4705 39.1536V39.8935C80.0462 39.6565 79.5777 39.538 79.0651 39.538C78.3844 39.538 77.8319 39.7654 77.4075 40.2201C76.9859 40.6748 76.7751 41.2824 76.7751 42.043C76.7751 42.765 76.9721 43.3409 77.3662 43.7708C77.763 44.198 78.2825 44.4115 78.9246 44.4115C79.5198 44.4115 80.0351 44.2793 80.4705 44.0147V44.6885ZM85.1828 39.6372H83.4715V44.9365H82.7771V39.6372H81.0699V39.0089H85.1828V39.6372ZM86.8115 44.9365H86.117V39.0089H86.8115V44.9365ZM90.7632 45.0357C89.9227 45.0357 89.2489 44.7587 88.7419 44.2048C88.2376 43.6509 87.9854 42.9303 87.9854 42.043C87.9854 41.0895 88.2431 40.3289 88.7584 39.7612C89.2737 39.1935 89.9751 38.9097 90.8624 38.9097C91.6808 38.9097 92.3395 39.1853 92.8383 39.7364C93.3398 40.2876 93.5906 41.0082 93.5906 41.8983C93.5906 42.8656 93.3343 43.6303 92.8217 44.1924C92.3092 44.7546 91.623 45.0357 90.7632 45.0357ZM90.8128 39.538C90.19 39.538 89.6843 39.7626 89.2958 40.2118C88.9072 40.661 88.7129 41.2507 88.7129 41.981C88.7129 42.7112 88.9017 43.2996 89.2792 43.746C89.6595 44.1897 90.1542 44.4115 90.7632 44.4115C91.4135 44.4115 91.9261 44.1993 92.3009 43.775C92.6757 43.3506 92.8631 42.7567 92.8631 41.9934C92.8631 41.2107 92.6812 40.6059 92.3174 40.1787C91.9537 39.7516 91.4521 39.538 90.8128 39.538ZM99.5347 44.9365H98.6832L95.6326 40.2118C95.5554 40.0933 95.492 39.9693 95.4424 39.8398H95.4176C95.4397 39.9665 95.4507 40.238 95.4507 40.6541V44.9365H94.7562V39.0089H95.6574L98.6253 43.6592C98.7493 43.8521 98.8292 43.9844 98.865 44.056H98.8816C98.854 43.8852 98.8402 43.5945 98.8402 43.1838V39.0089H99.5347V44.9365ZM100.812 44.6967V43.8783C100.906 43.961 101.017 44.0354 101.147 44.1015C101.279 44.1676 101.417 44.2241 101.56 44.271C101.706 44.3151 101.852 44.3495 101.998 44.3743C102.144 44.3991 102.279 44.4115 102.403 44.4115C102.831 44.4115 103.149 44.333 103.358 44.1759C103.57 44.0161 103.677 43.7874 103.677 43.4897C103.677 43.3299 103.641 43.1907 103.569 43.0722C103.5 42.9537 103.404 42.8463 103.28 42.7498C103.156 42.6506 103.008 42.5569 102.837 42.4687C102.669 42.3778 102.487 42.2827 102.292 42.1835C102.085 42.0788 101.892 41.9727 101.713 41.8652C101.534 41.7578 101.378 41.6393 101.246 41.5097C101.114 41.3802 101.009 41.2342 100.932 41.0716C100.857 40.9062 100.82 40.7133 100.82 40.4929C100.82 40.2228 100.879 39.9886 100.998 39.7902C101.116 39.589 101.272 39.4237 101.465 39.2941C101.658 39.1646 101.877 39.0682 102.122 39.0048C102.37 38.9414 102.622 38.9097 102.879 38.9097C103.463 38.9097 103.889 38.98 104.156 39.1205V39.9018C103.806 39.6593 103.357 39.538 102.808 39.538C102.657 39.538 102.505 39.5546 102.354 39.5876C102.202 39.6179 102.067 39.6689 101.949 39.7406C101.83 39.8122 101.734 39.9045 101.659 40.0175C101.585 40.1305 101.548 40.2683 101.548 40.4309C101.548 40.5824 101.575 40.7133 101.63 40.8236C101.688 40.9338 101.772 41.0344 101.883 41.1253C101.993 41.2163 102.126 41.3044 102.284 41.3899C102.443 41.4753 102.627 41.569 102.833 41.671C103.045 41.7757 103.247 41.8859 103.437 42.0016C103.627 42.1174 103.794 42.2455 103.937 42.3861C104.08 42.5266 104.193 42.6823 104.276 42.8532C104.361 43.024 104.404 43.2197 104.404 43.4401C104.404 43.7322 104.346 43.9803 104.23 44.1842C104.117 44.3853 103.963 44.5493 103.767 44.6761C103.575 44.8028 103.351 44.8938 103.098 44.9489C102.844 45.0068 102.577 45.0357 102.296 45.0357C102.202 45.0357 102.086 45.0274 101.949 45.0109C101.811 44.9971 101.67 44.9751 101.527 44.9448C101.384 44.9172 101.247 44.8828 101.118 44.8414C100.991 44.7973 100.889 44.7491 100.812 44.6967Z" fill="#2A3042"/>
</svg>