<svg xmlns="http://www.w3.org/2000/svg" width="33" height="22" viewBox="0 0 33 22" fill="none">
  <path fill-rule="evenodd" clip-rule="evenodd" d="M30.5986 11.627C29.2252 14.0977 27.2163 16.1561 24.7799 17.5893C22.3435 19.0225 19.5682 19.7783 16.7416 19.7783C13.9149 19.7783 11.1396 19.0225 8.70324 17.5893C6.26684 16.1561 4.25792 14.0977 2.88457 11.627C2.77897 11.446 2.72333 11.2401 2.72333 11.0305C2.72333 10.8209 2.77897 10.6151 2.88457 10.434C4.2577 7.96314 6.26655 5.90436 8.70297 4.47098C11.1394 3.03759 13.9148 2.28177 16.7416 2.28177C19.5684 2.28177 22.3437 3.03759 24.7802 4.47098C27.2166 5.90436 29.2254 7.96314 30.5986 10.434C30.7061 10.6144 30.7629 10.8205 30.7629 11.0305C30.7629 11.2405 30.7061 11.4467 30.5986 11.627ZM32.3866 9.43704C30.8359 6.64773 28.5678 4.32367 25.817 2.70563C23.0662 1.08758 19.9329 0.234375 16.7416 0.234375C13.5502 0.234375 10.4169 1.08758 7.66612 2.70563C4.91536 4.32367 2.6472 6.64773 1.09657 9.43704C0.818299 9.92184 0.671875 10.4711 0.671875 11.03C0.671875 11.589 0.818299 12.1382 1.09657 12.623C2.6472 15.4123 4.91536 17.7364 7.66612 19.3544C10.4169 20.9725 13.5502 21.8257 16.7416 21.8257C19.9329 21.8257 23.0662 20.9725 25.817 19.3544C28.5678 17.7364 30.8359 15.4123 32.3866 12.623C32.6648 12.1382 32.8113 11.589 32.8113 11.03C32.8113 10.4711 32.6648 9.92184 32.3866 9.43704ZM16.7436 15.237C17.574 15.2358 18.3854 14.9885 19.0753 14.5263C19.7652 14.0641 20.3026 13.4077 20.6196 12.6401C20.9365 11.8726 21.0189 11.0283 20.8561 10.214C20.6934 9.39966 20.2929 8.65184 19.7053 8.06506C19.1177 7.47828 18.3693 7.07887 17.5547 6.9173C16.7402 6.75572 15.896 6.83925 15.1289 7.15732C14.3618 7.47538 13.7062 8.0137 13.245 8.70425C12.7837 9.39481 12.5376 10.2066 12.5376 11.037C12.5407 12.1511 12.9856 13.2185 13.7747 14.0051C14.5637 14.7917 15.6324 15.2333 16.7466 15.233L16.7436 15.237ZM16.7436 4.78204C15.5073 4.78283 14.299 5.15019 13.2715 5.83768C12.244 6.52516 11.4434 7.50188 10.971 8.64435C10.4985 9.78681 10.3755 11.0437 10.6174 12.2561C10.8593 13.4685 11.4552 14.5819 12.3299 15.4556C13.2046 16.3293 14.3187 16.924 15.5314 17.1646C16.744 17.4051 18.0008 17.2806 19.1427 16.8069C20.2847 16.3332 21.2605 15.5316 21.9468 14.5033C22.6331 13.475 22.9992 12.2663 22.9986 11.03C22.9964 9.37255 22.3371 7.78356 21.1651 6.61154C19.993 5.43952 18.4041 4.78016 16.7466 4.77805L16.7436 4.78204Z" fill="white"/>
</svg>