<svg xmlns="http://www.w3.org/2000/svg" width="23" height="23" viewBox="0 0 23 23" fill="none">
  <path d="M21.4249 9.65771L16.8639 5.0957L15.5639 6.40271L19.5259 10.3657H6.54688V12.2087H19.5239L15.5619 16.1707L16.8619 17.4707L21.4229 12.9097C21.6372 12.696 21.8073 12.4421 21.9234 12.1626C22.0394 11.8831 22.0992 11.5834 22.0992 11.2807C22.0992 10.978 22.0394 10.6783 21.9234 10.3988C21.8073 10.1193 21.6372 9.86534 21.4229 9.65167L21.4249 9.65771Z" fill="white"/>
  <path d="M10.0993 19.5805C10.0993 19.7015 10.0755 19.8214 10.0291 19.9332C9.98277 20.045 9.91484 20.1466 9.82921 20.2321C9.74358 20.3177 9.64193 20.3855 9.53008 20.4317C9.41822 20.4779 9.29834 20.5017 9.17731 20.5015H3.20932C2.96506 20.5015 2.7308 20.4045 2.55807 20.2318C2.38535 20.059 2.28831 19.8248 2.28831 19.5805V2.99249C2.28831 2.74823 2.38535 2.51397 2.55807 2.34125C2.7308 2.16853 2.96506 2.07153 3.20932 2.07153H9.17731C9.29834 2.0714 9.41822 2.09513 9.53008 2.14136C9.64193 2.18758 9.74358 2.25541 9.82921 2.34094C9.91484 2.42648 9.98277 2.52803 10.0291 2.63983C10.0755 2.75164 10.0993 2.87146 10.0993 2.99249V7.90753H11.9423V2.99249C11.942 2.25934 11.6506 1.55635 11.1321 1.03802C10.6136 0.519703 9.91046 0.228516 9.17731 0.228516H3.20932C2.47634 0.228781 1.77345 0.520098 1.25516 1.03839C0.736864 1.55668 0.445578 2.25952 0.445312 2.99249V19.5805C0.445578 20.3135 0.736864 21.0164 1.25516 21.5347C1.77345 22.053 2.47634 22.3442 3.20932 22.3445H9.17731C9.91046 22.3445 10.6136 22.0534 11.1321 21.535C11.6506 21.0167 11.942 20.3137 11.9423 19.5805V14.6655H10.0993V19.5805Z" fill="white"/>
</svg>