<svg xmlns="http://www.w3.org/2000/svg" width="30" height="26" viewBox="0 0 30 26" fill="none">
  <path d="M11.4534 20.5547H4.80643C4.63192 20.5547 4.46456 20.624 4.34116 20.7474C4.21776 20.8708 4.14844 21.0382 4.14844 21.2127C4.14844 21.3872 4.21776 21.5546 4.34116 21.678C4.46456 21.8014 4.63192 21.8707 4.80643 21.8707H11.4534C11.628 21.8707 11.7953 21.8014 11.9187 21.678C12.0421 21.5546 12.1114 21.3872 12.1114 21.2127C12.1114 21.0382 12.0421 20.8708 11.9187 20.7474C11.7953 20.624 11.628 20.5547 11.4534 20.5547Z" fill="white"/>
  <path d="M21.3899 20.5547H14.7439C14.5694 20.5547 14.4021 20.624 14.2787 20.7474C14.1553 20.8708 14.0859 21.0382 14.0859 21.2127C14.0859 21.3872 14.1553 21.5546 14.2787 21.678C14.4021 21.8014 14.5694 21.8707 14.7439 21.8707H21.3899C21.5645 21.8707 21.7318 21.8014 21.8552 21.678C21.9786 21.5546 22.0479 21.3872 22.0479 21.2127C22.0479 21.0382 21.9786 20.8708 21.8552 20.7474C21.7318 20.624 21.5645 20.5547 21.3899 20.5547Z" fill="white"/>
  <path d="M21.396 4.09961H4.81302C4.64281 4.10624 4.48179 4.1785 4.36372 4.30127C4.24564 4.42404 4.17969 4.58778 4.17969 4.75812C4.17969 4.92845 4.24564 5.09217 4.36372 5.21494C4.48179 5.3377 4.64281 5.40996 4.81302 5.4166H21.396C21.5662 5.40996 21.7273 5.3377 21.8453 5.21494C21.9634 5.09217 22.0294 4.92845 22.0294 4.75812C22.0294 4.58778 21.9634 4.42404 21.8453 4.30127C21.7273 4.1785 21.5662 4.10624 21.396 4.09961Z" fill="white"/>
  <path d="M21.3899 7.39258H14.7439C14.6575 7.39258 14.572 7.40959 14.4921 7.44266C14.4123 7.47573 14.3398 7.5242 14.2787 7.5853C14.2176 7.6464 14.1691 7.71893 14.136 7.79877C14.103 7.8786 14.0859 7.96416 14.0859 8.05057C14.0859 8.13698 14.103 8.22254 14.136 8.30237C14.1691 8.3822 14.2176 8.45474 14.2787 8.51584C14.3398 8.57694 14.4123 8.62541 14.4921 8.65848C14.572 8.69155 14.6575 8.70856 14.7439 8.70856H21.3899C21.4763 8.70856 21.5619 8.69155 21.6417 8.65848C21.7216 8.62541 21.7941 8.57694 21.8552 8.51584C21.9163 8.45474 21.9648 8.3822 21.9979 8.30237C22.0309 8.22254 22.0479 8.13698 22.0479 8.05057C22.0479 7.96416 22.0309 7.8786 21.9979 7.79877C21.9648 7.71893 21.9163 7.6464 21.8552 7.5853C21.7941 7.5242 21.7216 7.47573 21.6417 7.44266C21.5619 7.40959 21.4763 7.39258 21.3899 7.39258Z" fill="white"/>
  <path d="M21.3899 10.6836H14.7439C14.5694 10.6836 14.4021 10.7529 14.2787 10.8763C14.1553 10.9997 14.0859 11.1671 14.0859 11.3416C14.0859 11.5161 14.1553 11.6835 14.2787 11.8069C14.4021 11.9303 14.5694 11.9996 14.7439 11.9996H21.3899C21.5645 11.9996 21.7318 11.9303 21.8552 11.8069C21.9786 11.6835 22.0479 11.5161 22.0479 11.3416C22.0479 11.1671 21.9786 10.9997 21.8552 10.8763C21.7318 10.7529 21.5645 10.6836 21.3899 10.6836Z" fill="white"/>
  <path d="M21.3899 13.9727H14.7439C14.5694 13.9727 14.4021 14.042 14.2787 14.1654C14.1553 14.2888 14.0859 14.4561 14.0859 14.6306C14.0859 14.8052 14.1553 14.9725 14.2787 15.0959C14.4021 15.2193 14.5694 15.2887 14.7439 15.2887H21.3899C21.5645 15.2887 21.7318 15.2193 21.8552 15.0959C21.9786 14.9725 22.0479 14.8052 22.0479 14.6306C22.0479 14.4561 21.9786 14.2888 21.8552 14.1654C21.7318 14.042 21.5645 13.9727 21.3899 13.9727Z" fill="white"/>
  <path d="M21.3899 17.2637H14.7439C14.6575 17.2637 14.572 17.2807 14.4921 17.3138C14.4123 17.3468 14.3398 17.3953 14.2787 17.4564C14.2176 17.5175 14.1691 17.59 14.136 17.6699C14.103 17.7497 14.0859 17.8353 14.0859 17.9217C14.0859 18.0081 14.103 18.0936 14.136 18.1735C14.1691 18.2533 14.2176 18.3258 14.2787 18.3869C14.3398 18.448 14.4123 18.4965 14.4921 18.5296C14.572 18.5626 14.6575 18.5797 14.7439 18.5797H21.3899C21.4763 18.5797 21.5619 18.5626 21.6417 18.5296C21.7216 18.4965 21.7941 18.448 21.8552 18.3869C21.9163 18.3258 21.9648 18.2533 21.9979 18.1735C22.0309 18.0936 22.0479 18.0081 22.0479 17.9217C22.0479 17.8353 22.0309 17.7497 21.9979 17.6699C21.9648 17.59 21.9163 17.5175 21.8552 17.4564C21.7941 17.3953 21.7216 17.3468 21.6417 17.3138C21.5619 17.2807 21.4763 17.2637 21.3899 17.2637Z" fill="white"/>
  <path d="M11.4534 17.2637H4.80643C4.72002 17.2637 4.63447 17.2807 4.55463 17.3138C4.4748 17.3468 4.40226 17.3953 4.34116 17.4564C4.28006 17.5175 4.23159 17.59 4.19852 17.6699C4.16546 17.7497 4.14844 17.8353 4.14844 17.9217C4.14844 18.0081 4.16546 18.0936 4.19852 18.1735C4.23159 18.2533 4.28006 18.3258 4.34116 18.3869C4.40226 18.448 4.4748 18.4965 4.55463 18.5296C4.63447 18.5626 4.72002 18.5797 4.80643 18.5797H11.4534C11.5398 18.5797 11.6254 18.5626 11.7052 18.5296C11.7851 18.4965 11.8576 18.448 11.9187 18.3869C11.9798 18.3258 12.0283 18.2533 12.0613 18.1735C12.0944 18.0936 12.1114 18.0081 12.1114 17.9217C12.1114 17.8353 12.0944 17.7497 12.0613 17.6699C12.0283 17.59 11.9798 17.5175 11.9187 17.4564C11.8576 17.3953 11.7851 17.3468 11.7052 17.3138C11.6254 17.2807 11.5398 17.2637 11.4534 17.2637Z" fill="white"/>
  <path d="M11.4534 7.39258H4.80643C4.63192 7.39258 4.46456 7.4619 4.34116 7.5853C4.21776 7.7087 4.14844 7.87606 4.14844 8.05057V14.6986C4.14844 14.8731 4.21776 15.0405 4.34116 15.1638C4.46456 15.2872 4.63192 15.3566 4.80643 15.3566H11.4534C11.628 15.3566 11.7953 15.2872 11.9187 15.1638C12.0421 15.0405 12.1114 14.8731 12.1114 14.6986V8.05255C12.1117 7.96597 12.0949 7.8802 12.0619 7.80014C12.029 7.72008 11.9805 7.64731 11.9194 7.586C11.8583 7.52469 11.7857 7.47603 11.7057 7.44284C11.6257 7.40965 11.54 7.39258 11.4534 7.39258ZM10.7954 14.0386H5.46444V8.70856H10.7974L10.7954 14.0386Z" fill="white"/>
  <path d="M27.9731 3.44431H26.0001V1.47031C25.9996 1.12144 25.8608 0.787028 25.6141 0.540344C25.3674 0.293661 25.033 0.154826 24.6841 0.154297H1.51912C1.17018 0.154562 0.8356 0.293299 0.58886 0.540039C0.342119 0.78678 0.20339 1.12136 0.203125 1.47031V22.5283C0.204184 23.4005 0.551142 24.2367 1.16791 24.8535C1.78467 25.4703 2.62088 25.8172 3.49312 25.8183H26.0001C26.8724 25.8172 27.7086 25.4703 28.3253 24.8535C28.9421 24.2367 29.2891 23.4005 29.2901 22.5283V4.76028C29.2896 4.41125 29.1506 4.0767 28.9037 3.82999C28.6568 3.58327 28.3222 3.44457 27.9731 3.44431ZM27.9731 22.5283C27.9718 23.051 27.7634 23.5519 27.3937 23.9213C27.0239 24.2907 26.5228 24.4985 26.0001 24.4993H3.49312C2.96974 24.4988 2.46796 24.2906 2.09788 23.9205C1.7278 23.5504 1.51965 23.0487 1.51912 22.5253V1.47031H24.6831V21.5413C24.6836 21.9774 24.8571 22.3955 25.1655 22.7039C25.4739 23.0123 25.892 23.1858 26.3281 23.1863C26.5026 23.1863 26.67 23.117 26.7934 22.9936C26.9168 22.8702 26.9861 22.7028 26.9861 22.5283C26.9861 22.3538 26.9168 22.1864 26.7934 22.063C26.67 21.9396 26.5026 21.8703 26.3281 21.8703C26.2409 21.8703 26.1572 21.8356 26.0955 21.7739C26.0338 21.7122 25.9991 21.6285 25.9991 21.5413V4.76028H27.9731V22.5283Z" fill="white"/>
</svg>