<svg xmlns="http://www.w3.org/2000/svg" width="35" height="36" viewBox="0 0 35 36" fill="none">
  <path d="M6.26516 35.3555L14.3942 30.1297C15.5613 29.3806 16.2581 28.1032 16.2581 26.7097C16.2581 25.3161 15.5613 24.0445 14.3942 23.2897L6.26516 18.0639C5.60903 17.64 4.84839 17.4194 4.06452 17.4194C3.38516 17.4194 2.71161 17.5936 2.11935 17.9187C0.812903 18.6329 0 19.9974 0 21.4839V31.9355C0 33.4219 0.812903 34.7923 2.11935 35.5006C3.39677 36.1974 5.04 36.1394 6.26516 35.3497V35.3555ZM4.38387 20.9961L12.5129 26.2219C12.8671 26.4484 12.8671 26.971 12.5129 27.1974L4.38387 32.4232C3.99484 32.6729 3.48968 32.3942 3.48968 31.9355V21.4839C3.48968 21.0252 4.00064 20.7465 4.38387 20.9961Z" fill="white"/>
  <path d="M20.9032 36H28.4516C31.9761 36 34.8387 33.1374 34.8387 29.6129V6.3871C34.8387 2.86258 31.9761 0 28.4516 0H13.3548C9.83032 0 6.96774 2.86258 6.96774 6.3871V10.4516C6.96774 11.4097 7.75161 12.1935 8.70968 12.1935C9.66774 12.1935 10.4516 11.4097 10.4516 10.4516V6.3871C10.4516 4.78452 11.7523 3.48387 13.3548 3.48387H28.4516C30.0542 3.48387 31.3548 4.78452 31.3548 6.3871V29.6129C31.3548 31.2155 30.0542 32.5161 28.4516 32.5161H20.9032C19.9452 32.5161 19.1613 33.3 19.1613 34.2581C19.1613 35.2161 19.9452 36 20.9032 36Z" fill="white"/>
</svg>