<svg xmlns="http://www.w3.org/2000/svg" width="36" height="36" viewBox="0 0 36 36" fill="none">
  <path d="M23.625 0L36 6.1875V19.9863L33.75 18.8613V8.70117L24.75 13.2012V17.7363L22.5 18.8613V13.2012L13.5 8.70117V12.6914L11.25 11.5664V6.1875L23.625 0ZM23.625 11.25L26.7363 9.68555L18.5977 5.02734L14.8887 6.89062L23.625 11.25ZM29.1621 8.49023L32.3613 6.89062L23.625 2.51367L21.0059 3.83203L29.1621 8.49023ZM20.25 19.9863L18 21.1113V21.0938L11.25 24.4688V32.4668L18 29.0742V31.6055L10.125 35.543L0 30.4629V18.5801L10.125 13.5176L20.25 18.5801V19.9863ZM9 32.4668V24.4688L2.25 21.0938V29.0742L9 32.4668ZM10.125 22.5176L16.6113 19.2832L10.125 16.0312L3.63867 19.2832L10.125 22.5176ZM20.25 22.5L28.125 18.5625L36 22.5V31.7637L28.125 35.7012L20.25 31.7637V22.5ZM27 32.625V27.2637L22.5 25.0137V30.375L27 32.625ZM33.75 30.375V25.0137L29.25 27.2637V32.625L33.75 30.375ZM28.125 25.3125L32.3613 23.1855L28.125 21.0762L23.8887 23.1855L28.125 25.3125Z" fill="white"/>
</svg>