<svg xmlns="http://www.w3.org/2000/svg" width="19" height="19" viewBox="0 0 19 19" fill="none">
  <path d="M18.011 17.5193L13.382 12.9643C14.638 11.6115 15.337 9.83427 15.339 7.98827C15.363 6.49104 14.941 5.02054 14.1266 3.76393C13.3123 2.50733 12.1424 1.52146 10.7659 0.931824C9.38947 0.342191 7.86876 0.175468 6.39726 0.452866C4.92576 0.730264 3.57001 1.43924 2.50273 2.48955C1.43544 3.53986 0.704928 4.88399 0.403973 6.35085C0.103018 7.81771 0.245298 9.34095 0.812787 10.7267C1.38028 12.1124 2.34723 13.2979 3.59062 14.1323C4.83401 14.9667 6.29755 15.4123 7.79496 15.4123C9.52009 15.4154 11.1948 14.8306 12.543 13.7543L17.19 18.3273C17.2997 18.4346 17.4471 18.4947 17.6005 18.4947C17.754 18.4947 17.9013 18.4346 18.011 18.3273C18.0648 18.2747 18.1076 18.2118 18.1368 18.1424C18.166 18.073 18.181 17.9985 18.181 17.9233C18.181 17.848 18.166 17.7735 18.1368 17.7041C18.1076 17.6347 18.0648 17.5719 18.011 17.5193ZM7.79496 14.2693C6.55695 14.2494 5.3524 13.8641 4.33268 13.1617C3.31297 12.4594 2.52363 11.4714 2.06364 10.3219C1.60365 9.17234 1.4936 7.91249 1.74736 6.7006C2.00112 5.48871 2.60737 4.37884 3.48991 3.5104C4.37245 2.64196 5.49187 2.05369 6.70768 1.81949C7.9235 1.58528 9.18141 1.71558 10.3234 2.19403C11.4654 2.67248 12.4406 3.47773 13.1264 4.50863C13.8122 5.53953 14.1781 6.7501 14.178 7.98827C14.1643 9.6672 13.4843 11.272 12.2878 12.4498C11.0912 13.6276 9.47598 14.282 7.79704 14.2693H7.79496Z" fill="black"/>
</svg>