<svg xmlns="http://www.w3.org/2000/svg" width="40" height="40" viewBox="0 0 40 40" fill="none">
  <path d="M4.76923 24.1538V36.6154C4.76923 36.9826 4.91511 37.3348 5.17478 37.5945C5.43444 37.8541 5.78662 38 6.15385 38H33.8462C34.2134 38 34.5656 37.8541 34.8252 37.5945C35.0849 37.3348 35.2308 36.9826 35.2308 36.6154V24.1538M22.7692 24.1538V38M4.76923 28.3077H22.7692M2 11.6923L6.15385 2H33.8462L38 11.6923H2ZM2 11.6923V14.4615C2 15.9304 2.58351 17.3392 3.62218 18.3778C4.66084 19.4165 6.06957 20 7.53846 20H8.31385C9.78274 20 11.1915 19.4165 12.2301 18.3778C13.2688 17.3392 13.8523 15.9304 13.8523 14.4615V11.6923" stroke="white" stroke-width="2.57143" stroke-linecap="round" stroke-linejoin="round"/>
  <path d="M26.2307 11.6924V14.4616M26.2307 14.4616C26.2307 15.9305 25.6472 17.3392 24.6086 18.3779C23.5699 19.4166 22.1612 20.0001 20.6923 20.0001H19.3077C17.8388 20.0001 16.4301 19.4166 15.3914 18.3779C14.3527 17.3392 13.7692 15.9305 13.7692 14.4616V11.6924M26.2307 14.4616C26.2307 15.9305 26.8143 17.3392 27.8529 18.3779C28.8916 19.4166 30.3003 20.0001 31.7692 20.0001H32.4615C33.9304 20.0001 35.3391 19.4166 36.3778 18.3779C37.4165 17.3392 38 15.9305 38 14.4616V11.6924" stroke="white" stroke-width="2.57143" stroke-linecap="round" stroke-linejoin="round"/>
</svg>