<svg xmlns="http://www.w3.org/2000/svg" width="20" height="19" viewBox="0 0 20 19" fill="none">
  <path d="M6.34241 12.5237H9.82244C10.4859 12.9037 11.2518 13.1268 12.0721 13.1268C12.8923 13.1268 13.6583 12.9037 14.3218 12.5237H19.3096C19.4785 12.5237 19.6112 12.391 19.6112 12.2221V3.17524C19.6112 3.00637 19.4785 2.87368 19.3096 2.87368C19.1407 2.87368 19.008 3.00637 19.008 3.17524V4.68306H14.3218C13.6583 4.30309 12.8923 4.07993 12.0721 4.07993C11.2518 4.07993 10.4859 4.30309 9.82244 4.68306H4.44256L4.03847 3.10287V3.09684V3.09081L3.31472 0.678307C3.27853 0.545619 3.15791 0.461182 3.02522 0.461182H0.61272C0.443845 0.461182 0.311157 0.593869 0.311157 0.762744C0.311157 0.931619 0.443845 1.06431 0.61272 1.06431H2.80206L3.45947 3.25365L5.685 12.0472C5.44978 12.1377 5.23869 12.2704 5.06378 12.4513C4.72603 12.783 4.53303 13.2535 4.53303 13.7299C4.53303 14.7251 5.34725 15.5393 6.34241 15.5393H7.2471H17.5002H19.3096C19.4785 15.5393 19.6112 15.4066 19.6112 15.2377C19.6112 15.0689 19.4785 14.9362 19.3096 14.9362H6.34241C5.67897 14.9362 5.13616 14.3934 5.13616 13.7299C5.13616 13.4103 5.26281 13.0967 5.48597 12.8735C5.70913 12.6503 6.02275 12.5237 6.34241 12.5237ZM19.008 7.09556V8.27768H16.5774C16.5473 7.86756 16.4628 7.46949 16.3302 7.09556H19.008ZM19.008 10.7143V11.9206H15.136C15.5099 11.5768 15.8296 11.1667 16.0708 10.7143H19.008ZM12.0721 4.68306C14.2313 4.68306 15.9924 6.44418 15.9924 8.60337C15.9924 10.7626 14.2313 12.5237 12.0721 12.5237C9.91291 12.5237 8.15178 10.7626 8.15178 8.60337C8.15178 6.44418 9.91291 4.68306 12.0721 4.68306ZM9.00822 11.9206H6.34241H6.27606L5.96847 10.7143H8.07338C8.31463 11.1667 8.63428 11.5768 9.00822 11.9206ZM5.35328 8.27768L5.05172 7.08349H7.82006C7.68738 7.46346 7.59691 7.86153 7.56675 8.27768H5.35328Z" fill="white"/>
  <path d="M7.24707 18.5547C8.07981 18.5547 8.75488 17.8796 8.75488 17.0469C8.75488 16.2141 8.07981 15.5391 7.24707 15.5391C6.41433 15.5391 5.73926 16.2141 5.73926 17.0469C5.73926 17.8796 6.41433 18.5547 7.24707 18.5547Z" fill="white"/>
  <path d="M17.5002 18.5547C18.333 18.5547 19.0081 17.8796 19.0081 17.0469C19.0081 16.2141 18.333 15.5391 17.5002 15.5391C16.6675 15.5391 15.9924 16.2141 15.9924 17.0469C15.9924 17.8796 16.6675 18.5547 17.5002 18.5547Z" fill="white"/>
  <path d="M10.2627 8.30192C10.3412 8.30192 10.4196 8.27176 10.4738 8.21145L11.7706 6.92076V11.016C11.7706 11.1849 11.9032 11.3175 12.0721 11.3175C12.241 11.3175 12.3737 11.1849 12.3737 11.016V8.60348V8.57935V6.92076L13.6704 8.21748C13.791 8.3381 13.978 8.3381 14.0986 8.21748C14.2192 8.09685 14.2192 7.90988 14.0986 7.78926L12.2892 5.97988C12.247 5.93767 12.1988 5.91957 12.1505 5.90751C12.1385 5.90751 12.1324 5.90148 12.1204 5.90148C12.0601 5.88942 12.0058 5.88942 11.9575 5.91354C11.9213 5.9256 11.8912 5.94973 11.861 5.97385L10.0517 7.78323C9.93103 7.90385 9.93103 8.09082 10.0517 8.21145C10.1059 8.27176 10.1843 8.30192 10.2627 8.30192Z" fill="white"/>
</svg>