<svg xmlns="http://www.w3.org/2000/svg" width="26" height="25" viewBox="0 0 36 35" fill="none">
  <path d="M35.7633 31.6731C33.4781 27.6624 29.9098 24.5374 25.6328 22.8011C27.7597 21.2059 29.3308 18.9819 30.1235 16.4442C30.9163 13.9065 30.8904 11.1837 30.0497 8.66152C29.209 6.13931 27.596 3.94557 25.4392 2.39104C23.2824 0.836512 20.6911 0 18.0325 0C15.3738 0 12.7826 0.836512 10.6258 2.39104C8.46901 3.94557 6.85601 6.13931 6.01527 8.66152C5.17454 11.1837 5.1487 13.9065 5.94142 16.4442C6.73414 18.9819 8.30522 21.2059 10.4321 22.8011C6.15514 24.5374 2.58684 27.6624 0.301663 31.6731C0.160065 31.9008 0.0656909 32.1546 0.0241506 32.4195C-0.0173897 32.6844 -0.00524807 32.9549 0.059854 33.215C0.124956 33.4751 0.241689 33.7195 0.403114 33.9336C0.564539 34.1477 0.76736 34.3271 0.999519 34.4612C1.23168 34.5954 1.48844 34.6814 1.75453 34.7144C2.02062 34.7473 2.29062 34.7264 2.54847 34.6528C2.80631 34.5793 3.04675 34.4547 3.25548 34.2864C3.4642 34.1182 3.63697 33.9096 3.76349 33.6732C6.78363 28.453 12.1172 25.3395 18.0325 25.3395C23.9478 25.3395 29.2813 28.4546 32.3015 33.6732C32.5757 34.1141 33.0106 34.4311 33.5143 34.5572C34.0179 34.6833 34.5509 34.6085 35.0005 34.3488C35.4501 34.089 35.781 33.6646 35.9234 33.1653C36.0657 32.666 36.0083 32.1309 35.7633 31.6731ZM9.36541 12.6723C9.36541 10.9581 9.87373 9.28238 10.8261 7.85709C11.7784 6.4318 13.132 5.32092 14.7157 4.66493C16.2994 4.00894 18.0421 3.8373 19.7233 4.17172C21.4046 4.50614 22.9489 5.3316 24.161 6.54371C25.3731 7.75582 26.1986 9.30014 26.533 10.9814C26.8674 12.6626 26.6958 14.4053 26.0398 15.989C25.3838 17.5727 24.2729 18.9263 22.8476 19.8787C21.4224 20.831 19.7467 21.3393 18.0325 21.3393C15.7346 21.3367 13.5317 20.4227 11.9069 18.7979C10.282 17.1731 9.36806 14.9701 9.36541 12.6723Z" fill="white"/>
</svg>